<svg width="238" height="54" viewBox="0 0 238 54" fill="none" xmlns="http://www.w3.org/2000/svg">
<rect width="238" height="54" rx="4" fill="#03C75A"/>
<g clip-path="url(#clip0_335_1935)">
<path d="M64.8491 27.5627L58.9169 19H54V35H59.1509V26.436L65.0831 35H70V19H64.8491V27.5627Z" fill="white"/>
</g>
<path d="M94.27 24.418H90.868V23.104H94.27V18.37H95.8V32.986H94.27V24.418ZM98.968 33.76H97.438V18.028H98.968V33.76ZM93.19 29.242C92.074 29.512 89.932 29.728 87.97 29.764H86.476V19.72H88.06V28.396C89.608 28.396 91.876 28.234 92.956 27.928L93.19 29.242ZM114.236 33.76H112.634V18.028H114.236V33.76ZM101.816 24.76C101.816 21.646 103.076 19.216 105.866 19.216C108.656 19.216 109.898 21.646 109.898 24.778C109.898 27.892 108.656 30.34 105.866 30.34C103.076 30.34 101.816 27.892 101.816 24.76ZM108.314 24.778C108.314 22.348 107.486 20.584 105.866 20.584C104.264 20.584 103.436 22.348 103.436 24.778C103.436 27.208 104.264 28.954 105.866 28.954C107.486 28.954 108.314 27.208 108.314 24.778ZM128.244 25.138H125.418V23.788H128.244V18.028H129.828V33.76H128.244V25.138ZM124.716 29.8H117.318V19.306H118.884V23.266H123.114V19.288H124.716V29.8ZM123.114 28.504V24.526H118.884V28.504H123.114ZM151.337 31.762H137.135V30.466H143.399V27.982H138.845V22.924H147.989V20.62H138.809V19.324H149.573V24.22H140.429V26.686H150.005V27.982H145.001V30.466H151.337V31.762ZM166.911 31.474H152.709V30.178H166.911V31.474ZM165.021 19.81C165.021 23.392 164.751 27.01 164.283 29.044L162.735 28.846C163.131 27.334 163.401 23.464 163.401 21.088H154.185V19.81H165.021ZM181.19 29.458H179.588V18.028H181.19V29.458ZM181.55 33.274H170.84V28.378H172.442V31.996H181.55V33.274ZM172.838 19.09C175.268 19.09 177.05 20.764 177.05 23.014C177.05 25.282 175.268 26.848 172.838 26.848C170.426 26.848 168.644 25.282 168.644 23.032C168.644 20.764 170.426 19.09 172.838 19.09ZM172.838 20.458C171.362 20.458 170.318 21.538 170.318 22.996C170.318 24.436 171.362 25.516 172.838 25.516C174.386 25.516 175.358 24.454 175.358 23.014C175.358 21.52 174.386 20.458 172.838 20.458Z" fill="white"/>
<defs>
<clipPath id="clip0_335_1935">
<rect width="16" height="16" fill="white" transform="translate(54 19)"/>
</clipPath>
</defs>
</svg>
