<svg width="85" height="85" viewBox="0 0 85 85" fill="none" xmlns="http://www.w3.org/2000/svg">
<path d="M85 42.5C85 65.9721 65.9721 85 42.5 85C19.0279 85 0 65.9721 0 42.5C0 19.0279 19.0279 0 42.5 0C65.9721 0 85 19.0279 85 42.5Z" fill="#D9D9D9"/>
<path d="M15.6923 75.4805C17.9922 64.1619 29.1196 55.5769 42.5 55.5769C55.8804 55.5769 67.0078 64.1619 69.3077 75.4805C61.9946 81.4321 52.6639 85 42.5 85C32.3361 85 23.0054 81.4321 15.6923 75.4805Z" fill="white"/>
<path d="M55.5769 36.7788C55.5769 44.1515 49.6002 50.1282 42.2276 50.1282C34.8549 50.1282 28.8782 44.1515 28.8782 36.7788C28.8782 29.4062 34.8549 23.4295 42.2276 23.4295C49.6002 23.4295 55.5769 29.4062 55.5769 36.7788Z" fill="white"/>
</svg>
