<svg width="26" height="24" viewBox="0 0 26 24" fill="none" xmlns="http://www.w3.org/2000/svg">
<path d="M21.5879 20.5107L22.8379 20.511V20.5107H21.5879ZM3.34082 20.5107H2.09082V20.511L3.34082 20.5107ZM12.2515 1.41951L12.9478 2.45765L12.2515 1.41951ZM13.3696 1.42228L12.6683 2.45696L13.3696 1.42228ZM23.8111 8.50034L24.5125 7.46566L23.8111 8.50034ZM24.25 9.32808H23V9.7041H24.25H25.5V9.32808H24.25ZM23.25 10.7041V9.4541H22.5879V10.7041V11.9541H23.25V10.7041ZM21.5879 11.7041H20.3379V20.5107H21.5879H22.8379V11.7041H21.5879ZM21.5879 20.5107L20.3379 20.5105C20.3378 20.925 20.0018 21.2607 19.5879 21.2607V22.5107V23.7607C21.3829 23.7607 22.8376 22.3053 22.8379 20.511L21.5879 20.5107ZM19.5879 22.5107V21.2607H15.8408V22.5107V23.7607H19.5879V22.5107ZM14.8408 21.5107H16.0908V15.9971H14.8408H13.5908V21.5107H14.8408ZM13.8408 14.9971V13.7471H11.6582V14.9971V16.2471H13.8408V14.9971ZM10.6582 15.9971H9.4082V21.5107H10.6582H11.9082V15.9971H10.6582ZM9.6582 22.5107V21.2607H5.34082V22.5107V23.7607H9.6582V22.5107ZM5.34082 22.5107V21.2607C4.92695 21.2607 4.59089 20.925 4.59082 20.5105L3.34082 20.5107L2.09082 20.511C2.09114 22.3053 3.54579 23.7607 5.34082 23.7607V22.5107ZM3.34082 20.5107H4.59082V11.7041H3.34082H2.09082V20.5107H3.34082ZM2.34082 10.7041V9.4541H2.25V10.7041V11.9541H2.34082V10.7041ZM1.25 9.7041H2.5V9.33126H1.25H0V9.7041H1.25ZM1.693 8.50074L2.38925 9.53889L12.9478 2.45765L12.2515 1.41951L11.5553 0.381366L0.996757 7.4626L1.693 8.50074ZM13.3696 1.42228L12.6683 2.45696L23.1097 9.53501L23.8111 8.50034L24.5125 7.46566L14.071 0.387605L13.3696 1.42228ZM12.2515 1.41951L12.9478 2.45765C12.8632 2.5144 12.7526 2.51412 12.6683 2.45696L13.3696 1.42228L14.071 0.387605C13.3121 -0.126886 12.3168 -0.129356 11.5553 0.381366L12.2515 1.41951ZM10.6582 21.5107H9.4082C9.4082 21.3727 9.52013 21.2607 9.6582 21.2607V22.5107V23.7607C10.9008 23.7607 11.9082 22.7534 11.9082 21.5107H10.6582ZM11.6582 14.9971V13.7471C10.4156 13.7471 9.4082 14.7544 9.4082 15.9971H10.6582H11.9082C11.9082 16.1351 11.7963 16.2471 11.6582 16.2471V14.9971ZM1.25 9.33126H2.5C2.5 9.4146 2.45847 9.49247 2.38925 9.53889L1.693 8.50074L0.996757 7.4626C0.373794 7.8804 0 8.58117 0 9.33126H1.25ZM22.5879 10.7041V9.4541C21.3452 9.4541 20.3379 10.4615 20.3379 11.7041H21.5879H22.8379C22.8379 11.8422 22.726 11.9541 22.5879 11.9541V10.7041ZM14.8408 15.9971H16.0908C16.0908 14.7544 15.0835 13.7471 13.8408 13.7471V14.9971V16.2471C13.7027 16.2471 13.5908 16.1351 13.5908 15.9971H14.8408ZM2.25 10.7041V9.4541C2.38807 9.4541 2.5 9.56603 2.5 9.7041H1.25H0C0 10.9467 1.00736 11.9541 2.25 11.9541V10.7041ZM24.25 9.7041H23C23 9.56603 23.1119 9.4541 23.25 9.4541V10.7041V11.9541C24.4926 11.9541 25.5 10.9467 25.5 9.7041H24.25ZM15.8408 22.5107V21.2607C15.9789 21.2607 16.0908 21.3727 16.0908 21.5107H14.8408H13.5908C13.5908 22.7534 14.5982 23.7607 15.8408 23.7607V22.5107ZM3.34082 11.7041H4.59082C4.59082 10.4615 3.58346 9.4541 2.34082 9.4541V10.7041V11.9541C2.20275 11.9541 2.09082 11.8422 2.09082 11.7041H3.34082ZM24.25 9.32808H25.5C25.5 8.58194 25.1301 7.88433 24.5125 7.46566L23.8111 8.50034L23.1097 9.53501C23.0411 9.48849 23 9.41098 23 9.32808H24.25Z" fill="#282828"/>
</svg>
