<svg width="26" height="26" viewBox="0 0 26 26" fill="none" xmlns="http://www.w3.org/2000/svg">
<g clip-path="url(#clip0_454_1109)">
<path d="M17.7736 21.875V19.7917C17.7736 18.6866 17.3346 17.6268 16.5532 16.8454C15.7718 16.064 14.712 15.625 13.6069 15.625H5.2736C4.16853 15.625 3.10872 16.064 2.32732 16.8454C1.54592 17.6268 1.10693 18.6866 1.10693 19.7917V21.875M24.0236 21.875V19.7917C24.0229 18.8685 23.7156 17.9716 23.15 17.242C22.5844 16.5124 21.7925 15.9912 20.8986 15.7604M16.7319 3.26042C17.6282 3.4899 18.4226 4.01115 18.9899 4.74199C19.5572 5.47283 19.8651 6.3717 19.8651 7.29687C19.8651 8.22205 19.5572 9.12092 18.9899 9.85176C18.4226 10.5826 17.6282 11.1039 16.7319 11.3333M13.6069 7.29167C13.6069 9.59285 11.7415 11.4583 9.44027 11.4583C7.13908 11.4583 5.2736 9.59285 5.2736 7.29167C5.2736 4.99048 7.13908 3.125 9.44027 3.125C11.7415 3.125 13.6069 4.99048 13.6069 7.29167Z" stroke="#282828" stroke-width="2.5" stroke-linecap="round" stroke-linejoin="round"/>
</g>
<path d="M1.25049 22.3149C7.6649 25.6688 14.9108 23.7124 17.732 22.3149" stroke="#282828" stroke-width="2.5" stroke-linecap="round"/>
<path d="M23.6763 22.2222C22.3088 23.2098 21.1003 22.9423 20.4355 23.1481" stroke="#282828" stroke-width="2.5" stroke-linecap="round"/>
<defs>
<clipPath id="clip0_454_1109">
<rect width="25" height="25" fill="white" transform="translate(0.0654297)"/>
</clipPath>
</defs>
</svg>
