<svg width="25" height="23" viewBox="0 0 25 23" fill="none" xmlns="http://www.w3.org/2000/svg">
<path d="M23.3111 8.00034C23.5856 8.18641 23.75 8.49646 23.75 8.82808V9.2041C23.75 9.75639 23.3023 10.2041 22.75 10.2041H22.0879C21.5356 10.2041 21.0879 10.6518 21.0879 11.2041V20.0107C21.0877 21.1151 20.1923 22.0107 19.0879 22.0107H15.3408C14.7885 22.0107 14.3408 21.563 14.3408 21.0107V15.4971C14.3408 14.9448 13.8931 14.4971 13.3408 14.4971H11.1582C10.6059 14.4971 10.1582 14.9448 10.1582 15.4971V21.0107C10.1582 21.563 9.71049 22.0107 9.1582 22.0107H4.84082C3.73637 22.0107 2.84102 21.1151 2.84082 20.0107V11.2041C2.84082 10.6518 2.39311 10.2041 1.84082 10.2041H1.75C1.19772 10.2041 0.75 9.75639 0.75 9.2041V8.83126C0.75 8.49788 0.916131 8.18643 1.193 8.00075L11.7515 0.919509C12.09 0.692522 12.5323 0.693619 12.8696 0.922282L23.3111 8.00034Z" fill="#FFBECD"/>
<path d="M21.0879 20.0107L21.8379 20.0109V20.0107H21.0879ZM2.84082 20.0107H2.09082V20.0109L2.84082 20.0107ZM11.7515 0.919509L12.1693 1.54239L11.7515 0.919509ZM12.8696 0.922282L12.4488 1.54309L12.8696 0.922282ZM23.3111 8.00034L23.7319 7.37953L23.3111 8.00034ZM23.75 8.82808H23V9.2041H23.75H24.5V8.82808H23.75ZM22.75 10.2041V9.4541H22.0879V10.2041V10.9541H22.75V10.2041ZM21.0879 11.2041H20.3379V20.0107H21.0879H21.8379V11.2041H21.0879ZM21.0879 20.0107L20.3379 20.0106C20.3378 20.701 19.778 21.2607 19.0879 21.2607V22.0107V22.7607C20.6067 22.7607 21.8376 21.5293 21.8379 20.0109L21.0879 20.0107ZM19.0879 22.0107V21.2607H15.3408V22.0107V22.7607H19.0879V22.0107ZM14.3408 21.0107H15.0908V15.4971H14.3408H13.5908V21.0107H14.3408ZM13.3408 14.4971V13.7471H11.1582V14.4971V15.2471H13.3408V14.4971ZM10.1582 15.4971H9.4082V21.0107H10.1582H10.9082V15.4971H10.1582ZM9.1582 22.0107V21.2607H4.84082V22.0107V22.7607H9.1582V22.0107ZM4.84082 22.0107V21.2607C4.15072 21.2607 3.59094 20.701 3.59082 20.0106L2.84082 20.0107L2.09082 20.0109C2.09109 21.5293 3.32203 22.7607 4.84082 22.7607V22.0107ZM2.84082 20.0107H3.59082V11.2041H2.84082H2.09082V20.0107H2.84082ZM1.84082 10.2041V9.4541H1.75V10.2041V10.9541H1.84082V10.2041ZM0.75 9.2041H1.5V8.83126H0.75H0V9.2041H0.75ZM1.193 8.00074L1.61075 8.62363L12.1693 1.54239L11.7515 0.919509L11.3338 0.296623L0.775255 7.37786L1.193 8.00074ZM12.8696 0.922282L12.4488 1.54309L22.8903 8.62114L23.3111 8.00034L23.7319 7.37953L13.2905 0.301476L12.8696 0.922282ZM11.7515 0.919509L12.1693 1.54239C12.2539 1.48565 12.3645 1.48592 12.4488 1.54309L12.8696 0.922282L13.2905 0.301476C12.7002 -0.0986838 11.9261 -0.100605 11.3338 0.296623L11.7515 0.919509ZM10.1582 21.0107H9.4082C9.4082 21.1488 9.29627 21.2607 9.1582 21.2607V22.0107V22.7607C10.1247 22.7607 10.9082 21.9772 10.9082 21.0107H10.1582ZM11.1582 14.4971V13.7471C10.1917 13.7471 9.4082 14.5306 9.4082 15.4971H10.1582H10.9082C10.9082 15.359 11.0201 15.2471 11.1582 15.2471V14.4971ZM0.75 8.83126H1.5C1.5 8.74792 1.54153 8.67005 1.61075 8.62363L1.193 8.00074L0.775255 7.37786C0.290729 7.70281 0 8.24785 0 8.83126H0.75ZM22.0879 10.2041V9.4541C21.1214 9.4541 20.3379 10.2376 20.3379 11.2041H21.0879H21.8379C21.8379 11.066 21.9498 10.9541 22.0879 10.9541V10.2041ZM14.3408 15.4971H15.0908C15.0908 14.5306 14.3073 13.7471 13.3408 13.7471V14.4971V15.2471C13.4789 15.2471 13.5908 15.359 13.5908 15.4971H14.3408ZM1.75 10.2041V9.4541C1.61193 9.4541 1.5 9.34217 1.5 9.2041H0.75H0C0 10.1706 0.783502 10.9541 1.75 10.9541V10.2041ZM23.75 9.2041H23C23 9.34217 22.8881 9.4541 22.75 9.4541V10.2041V10.9541C23.7165 10.9541 24.5 10.1706 24.5 9.2041H23.75ZM15.3408 22.0107V21.2607C15.2027 21.2607 15.0908 21.1488 15.0908 21.0107H14.3408H13.5908C13.5908 21.9772 14.3743 22.7607 15.3408 22.7607V22.0107ZM2.84082 11.2041H3.59082C3.59082 10.2376 2.80732 9.4541 1.84082 9.4541V10.2041V10.9541C1.97889 10.9541 2.09082 11.066 2.09082 11.2041H2.84082ZM23.75 8.82808H24.5C24.5 8.24775 24.2123 7.70516 23.7319 7.37953L23.3111 8.00034L22.8903 8.62114C22.9589 8.66766 23 8.74517 23 8.82808H23.75Z" fill="#FFBECD"/>
</svg>
