<svg width="18" height="18" viewBox="0 0 18 18" fill="none" xmlns="http://www.w3.org/2000/svg">
<path d="M7.98889 12.0333L13.0806 6.94167L12.0694 5.93056L7.98889 10.0111L5.93056 7.95278L4.91944 8.96389L7.98889 12.0333ZM3.94444 15.5C3.54722 15.5 3.20718 15.3586 2.92431 15.0757C2.64144 14.7928 2.5 14.4528 2.5 14.0556V3.94444C2.5 3.54722 2.64144 3.20718 2.92431 2.92431C3.20718 2.64144 3.54722 2.5 3.94444 2.5H14.0556C14.4528 2.5 14.7928 2.64144 15.0757 2.92431C15.3586 3.20718 15.5 3.54722 15.5 3.94444V14.0556C15.5 14.4528 15.3586 14.7928 15.0757 15.0757C14.7928 15.3586 14.4528 15.5 14.0556 15.5H3.94444Z" fill="#FFBECD"/>
</svg>
