<svg width="28" height="26" viewBox="0 0 28 26" fill="none" xmlns="http://www.w3.org/2000/svg">
<path d="M14.75 13.5C16.2749 13.5001 17.7372 14.1063 18.8154 15.1846C19.8936 16.2629 20.5 17.7251 20.5 19.25V21.5C20.5 21.6232 20.4805 21.742 20.4473 21.8545C20.4958 22.356 20.2372 22.8577 19.7588 23.0947C16.5237 24.6971 8.2469 26.9626 0.825195 23.082C0.443139 22.8821 0.207126 22.5127 0.162109 22.1143C0.059359 21.9328 3.23301e-05 21.7235 0 21.5V19.25C2.17356e-05 17.725 0.606256 16.2629 1.68457 15.1846C2.7629 14.1063 4.22505 13.5 5.75 13.5H14.75ZM21.415 14.584C21.5877 13.9156 22.2691 13.513 22.9375 13.6855C24.1709 14.0041 25.2644 14.7237 26.0449 15.7305C26.8252 16.7373 27.249 17.9752 27.25 19.249V21.5C27.2499 21.9407 27.0203 22.3263 26.6758 22.5488C26.5935 22.6773 26.4876 22.7939 26.3564 22.8887C25.5458 23.4741 24.949 23.7745 24.4033 23.9463C24.1409 24.0289 23.9132 24.0737 23.748 24.1064C23.5754 24.1406 23.4763 24.1612 23.3691 24.1943C22.7099 24.3981 22.0098 24.0283 21.8057 23.3691C21.6019 22.7098 21.9716 22.0097 22.6309 21.8057C22.8822 21.7279 23.1069 21.6851 23.2627 21.6543C23.4258 21.622 23.5333 21.599 23.6523 21.5615C23.8541 21.498 24.1751 21.363 24.75 20.9619V19.251L24.7383 18.9824C24.6861 18.3584 24.4543 17.7597 24.0684 17.2617C23.6273 16.6929 23.0094 16.2865 22.3125 16.1064C21.6442 15.9339 21.2426 15.2523 21.415 14.584ZM10.25 0C13.4255 0.00015662 16 2.5745 16 5.75C15.9999 8.92546 13.4254 11.4998 10.25 11.5C7.07442 11.5 4.5001 8.92555 4.5 5.75C4.50004 2.5744 7.07439 0 10.25 0ZM16.9141 1.08594C17.0854 0.417486 17.766 0.0146096 18.4346 0.185547C19.6711 0.502228 20.768 1.22123 21.5508 2.22949C22.3335 3.23799 22.7588 4.47925 22.7588 5.75586C22.7587 7.03243 22.3335 8.27281 21.5508 9.28125C20.768 10.2897 19.6713 11.0095 18.4346 11.3262C17.766 11.4971 17.0854 11.0933 16.9141 10.4248C16.743 9.75612 17.1467 9.07551 17.8154 8.9043C18.5143 8.72522 19.1338 8.31793 19.5762 7.74805C20.0184 7.17816 20.2587 6.47721 20.2588 5.75586C20.2588 5.03436 20.0185 4.33269 19.5762 3.7627C19.1339 3.19292 18.5141 2.78651 17.8154 2.60742C17.1467 2.43619 16.7429 1.75468 16.9141 1.08594Z" fill="#FFBECD"/>
</svg>
