<svg width="215" height="144" viewBox="0 0 215 144" fill="none" xmlns="http://www.w3.org/2000/svg">
<path d="M86.4041 41.5923C89.5561 41.5923 92.112 44.1474 92.1121 47.2993C92.1121 50.4514 89.5562 53.0063 86.4041 53.0063C83.2522 53.0062 80.6971 50.4513 80.6971 47.2993C80.6972 44.1475 83.2523 41.5924 86.4041 41.5923Z" fill="#FFBECD"/>
<ellipse cx="129.779" cy="47.2995" rx="5.70728" ry="5.70726" fill="#FFBECD"/>
<path d="M108.062 0.5C125.075 0.500087 139.234 13.3205 142.256 30.2607C143.043 30.3045 143.819 30.4649 144.552 30.7393C145.443 31.0729 146.254 31.5668 146.939 32.1924C147.625 32.8181 148.17 33.5642 148.545 34.3867C148.92 35.2091 149.117 36.0924 149.124 36.9863C149.131 37.8804 148.949 38.7681 148.588 39.5977C148.227 40.4272 147.692 41.1826 147.018 41.8213C146.343 42.46 145.539 42.9697 144.653 43.3203C143.888 43.6234 143.073 43.8016 142.245 43.8506C139.201 60.7619 125.055 73.5526 108.062 73.5527C91.0681 73.5526 76.9222 60.7619 73.8779 43.8506C73.0503 43.8015 72.2361 43.6233 71.4707 43.3203C70.5849 42.9697 69.7814 42.46 69.1064 41.8213C68.4316 41.1826 67.8984 40.4271 67.5371 39.5977C67.1758 38.768 66.9927 37.8805 67 36.9863C67.0073 36.0924 67.2044 35.2091 67.5791 34.3867C67.9539 33.5642 68.4993 32.8181 69.1846 32.1924C69.8698 31.5666 70.6819 31.0729 71.5732 30.7393C72.3057 30.4651 73.0806 30.3045 73.8672 30.2607C76.8894 13.3205 91.0486 0.500151 108.062 0.5ZM108.062 4.5C93.1572 4.50015 80.5175 15.7579 77.8047 30.9629C77.479 32.7885 75.9414 34.1516 74.0898 34.2549C73.7961 34.2712 73.5104 34.3194 73.2402 34.3975L72.9756 34.4854C72.5488 34.6451 72.1794 34.8748 71.8818 35.1465C71.5853 35.4173 71.3644 35.7253 71.2188 36.0449C71.0735 36.3638 71.0027 36.6945 71 37.0195C70.9974 37.3437 71.0632 37.6764 71.2041 38C71.3447 38.3228 71.5608 38.637 71.8555 38.916L71.9697 39.0186C72.2443 39.2541 72.5725 39.4547 72.9434 39.6016C73.2152 39.7091 73.5063 39.7853 73.8086 39.8271L74.1152 39.8574L74.457 39.8926C76.1449 40.1387 77.5076 41.438 77.8145 43.1416C80.5469 58.3205 93.1742 69.5526 108.062 69.5527C122.949 69.5526 135.576 58.3205 138.309 43.1416L138.384 42.8066C138.828 41.1593 140.28 39.9597 142.009 39.8574C142.318 39.8391 142.619 39.7849 142.903 39.6982L143.182 39.6006C143.605 39.4329 143.973 39.196 144.269 38.916C144.565 38.6353 144.781 38.3207 144.921 38C145.061 37.6791 145.127 37.3466 145.124 37.0195L145.109 36.7744C145.081 36.5296 145.014 36.284 144.905 36.0449C144.796 35.805 144.644 35.5715 144.45 35.3555L144.242 35.1465C143.981 34.9079 143.666 34.7021 143.306 34.5479L143.149 34.4854C142.804 34.356 142.427 34.2767 142.034 34.2549C140.182 34.1521 138.644 32.7889 138.318 30.9629C135.606 15.7579 122.966 4.50009 108.062 4.5ZM113.951 48.75C114.391 48.3238 115.071 48.1994 115.58 48.54C116.13 48.9084 116.262 49.6695 115.798 50.1416C115.058 50.8941 114.186 51.5252 113.219 52.0068C111.878 52.6741 110.389 53.0353 108.873 53.0605C107.357 53.0858 105.854 52.7747 104.488 52.1523C103.501 51.7025 102.604 51.0991 101.835 50.3701C101.355 49.9155 101.459 49.1515 101.995 48.7646C102.49 48.4076 103.173 48.5077 103.625 48.917C104.179 49.4184 104.816 49.8363 105.512 50.1533C106.545 50.6242 107.682 50.8598 108.829 50.8408C109.977 50.8217 111.104 50.5481 112.119 50.043C112.8 49.7042 113.418 49.2673 113.951 48.75ZM95.5361 34.7432C97.4274 34.7432 98.9609 36.2767 98.9609 38.168C98.9609 40.0592 97.4273 41.5918 95.5361 41.5918C93.6451 41.5916 92.1123 40.059 92.1123 38.168C92.1123 36.2769 93.6451 34.7434 95.5361 34.7432ZM120.648 34.7432C122.54 34.7432 124.072 36.2768 124.072 38.168C124.072 40.0591 122.54 41.5917 120.648 41.5918C118.757 41.5918 117.224 40.0592 117.224 38.168C117.224 36.2767 118.757 34.7432 120.648 34.7432ZM106.24 8.60156C106.809 7.99932 107.759 7.97231 108.361 8.54102C108.964 9.10983 108.991 10.0598 108.422 10.6621L106.863 12.3125C105.745 13.4968 105.208 15.1158 105.399 16.7334L105.573 18.2041C105.66 18.9364 106.021 19.6093 106.584 20.0859L106.847 20.3086C107.663 21 108.834 21.0801 109.737 20.5068L110.042 20.3135C110.385 20.0953 110.63 19.7513 110.724 19.3555L110.862 18.7686C110.925 18.5038 110.82 18.2272 110.598 18.0703C110.392 17.9255 110.122 17.9088 109.9 18.0264L109.555 18.209C108.823 18.5962 107.915 18.3169 107.527 17.585C107.14 16.853 107.42 15.9453 108.151 15.5576L108.497 15.375C109.718 14.7286 111.198 14.8235 112.327 15.6201C113.55 16.483 114.125 18.0017 113.781 19.458L113.643 20.0449C113.369 21.2026 112.654 22.2078 111.65 22.8457L111.347 23.0391C109.335 24.3167 106.726 24.1378 104.908 22.5977L104.645 22.375C103.502 21.4075 102.769 20.0422 102.594 18.5557L102.42 17.085C102.125 14.585 102.953 12.0822 104.682 10.252L106.24 8.60156Z" fill="#FF5D83"/>
<path d="M108.062 0.5L108.062 0H108.062L108.062 0.5ZM142.256 30.2607L141.764 30.3486L141.833 30.738L142.228 30.76L142.256 30.2607ZM144.552 30.7393L144.727 30.271L144.727 30.271L144.552 30.7393ZM146.939 32.1924L147.277 31.8232L147.277 31.8232L146.939 32.1924ZM148.545 34.3867L149 34.1794L149 34.1794L148.545 34.3867ZM149.124 36.9863L149.624 36.9823V36.9822L149.124 36.9863ZM148.588 39.5977L149.046 39.7973V39.7973L148.588 39.5977ZM147.018 41.8213L147.361 42.1845L147.361 42.1844L147.018 41.8213ZM144.653 43.3203L144.837 43.7852L144.837 43.7852L144.653 43.3203ZM142.245 43.8506L142.216 43.3515L141.823 43.3747L141.753 43.762L142.245 43.8506ZM108.062 73.5527L108.062 74.0527H108.062L108.062 73.5527ZM73.8779 43.8506L74.37 43.762L74.3003 43.3748L73.9075 43.3515L73.8779 43.8506ZM71.4707 43.3203L71.2867 43.7852L71.2867 43.7852L71.4707 43.3203ZM69.1064 41.8213L68.7628 42.1844L68.7628 42.1845L69.1064 41.8213ZM67.5371 39.5977L67.0787 39.7973L67.0787 39.7973L67.5371 39.5977ZM67 36.9863L66.5 36.9822L66.5 36.9823L67 36.9863ZM67.5791 34.3867L67.1241 34.1794L67.1241 34.1794L67.5791 34.3867ZM69.1846 32.1924L68.8474 31.8232L68.8474 31.8232L69.1846 32.1924ZM71.5732 30.7393L71.398 30.271L71.3979 30.271L71.5732 30.7393ZM73.8672 30.2607L73.895 30.76L74.2899 30.738L74.3594 30.3486L73.8672 30.2607ZM108.062 4.5L108.062 4H108.062L108.062 4.5ZM77.8047 30.9629L77.3125 30.8751L77.3125 30.8751L77.8047 30.9629ZM74.0898 34.2549L74.1176 34.7541H74.1177L74.0898 34.2549ZM73.2402 34.3975L73.1015 33.9171L73.092 33.9198L73.0826 33.9229L73.2402 34.3975ZM72.9756 34.4854L72.818 34.0108L72.8091 34.0138L72.8003 34.0171L72.9756 34.4854ZM71.8818 35.1465L71.5447 34.7773L71.5446 34.7773L71.8818 35.1465ZM71.2188 36.0449L70.7638 35.8376L70.7637 35.8376L71.2188 36.0449ZM71 37.0195L70.5 37.0154L70.5 37.0156L71 37.0195ZM71.2041 38L70.7457 38.1996L70.7457 38.1997L71.2041 38ZM71.8555 38.916L71.5116 39.2793L71.5215 39.2881L71.8555 38.916ZM71.9697 39.0186L71.6357 39.3908L71.6441 39.398L71.9697 39.0186ZM72.9434 39.6016L72.7593 40.0665L72.7594 40.0665L72.9434 39.6016ZM73.8086 39.8271L73.74 40.3224L73.7497 40.3238L73.7595 40.3247L73.8086 39.8271ZM74.1152 39.8574L74.1664 39.36L74.1644 39.3598L74.1152 39.8574ZM74.457 39.8926L74.5292 39.3978L74.5187 39.3963L74.5082 39.3952L74.457 39.8926ZM77.8145 43.1416L78.3065 43.053L78.3065 43.053L77.8145 43.1416ZM108.062 69.5527L108.062 70.0527H108.062L108.062 69.5527ZM138.309 43.1416L137.821 43.0321L137.818 43.0425L137.817 43.053L138.309 43.1416ZM138.384 42.8066L137.901 42.6764L137.898 42.6867L137.896 42.6971L138.384 42.8066ZM142.009 39.8574L142.038 40.3565H142.038L142.009 39.8574ZM142.903 39.6982L143.049 40.1765L143.059 40.1735L143.069 40.17L142.903 39.6982ZM143.182 39.6006L143.347 40.0724L143.357 40.0691L143.366 40.0654L143.182 39.6006ZM144.269 38.916L144.612 39.2792L144.612 39.2791L144.269 38.916ZM144.921 38L145.379 38.1997L145.379 38.1996L144.921 38ZM145.124 37.0195L145.624 37.0156L145.624 37.0026L145.623 36.9897L145.124 37.0195ZM145.109 36.7744L145.608 36.7446L145.608 36.7311L145.606 36.7176L145.109 36.7744ZM144.905 36.0449L145.36 35.8376L145.36 35.8376L144.905 36.0449ZM144.45 35.3555L144.822 35.0214L144.814 35.0118L144.805 35.0027L144.45 35.3555ZM144.242 35.1465L144.597 34.7938L144.588 34.7853L144.579 34.7773L144.242 35.1465ZM143.306 34.5479L143.503 34.0882L143.491 34.0836L143.306 34.5479ZM143.149 34.4854L143.335 34.021L143.325 34.0171L143.149 34.4854ZM142.034 34.2549L142.062 33.7557L142.062 33.7556L142.034 34.2549ZM138.318 30.9629L138.811 30.8751V30.8751L138.318 30.9629ZM113.951 48.75L113.603 48.391L113.603 48.3911L113.951 48.75ZM115.58 48.54L115.858 48.1246L115.858 48.1245L115.58 48.54ZM115.798 50.1416L116.154 50.4921L116.154 50.4921L115.798 50.1416ZM113.219 52.0068L113.442 52.4545H113.442L113.219 52.0068ZM108.873 53.0605L108.881 53.5605H108.881L108.873 53.0605ZM104.488 52.1523L104.281 52.6073H104.281L104.488 52.1523ZM101.835 50.3701L101.491 50.733L101.491 50.7331L101.835 50.3701ZM101.995 48.7646L101.703 48.3592L101.702 48.3592L101.995 48.7646ZM103.625 48.917L103.29 49.2878L103.29 49.2878L103.625 48.917ZM105.512 50.1533L105.304 50.6083L105.304 50.6083L105.512 50.1533ZM108.829 50.8408L108.837 51.3408H108.837L108.829 50.8408ZM112.119 50.043L112.342 50.4906L112.342 50.4906L112.119 50.043ZM95.5361 34.7432V34.2432H95.5361L95.5361 34.7432ZM98.9609 38.168L99.4609 38.168V38.168H98.9609ZM95.5361 41.5918L95.5361 42.0918H95.5361V41.5918ZM92.1123 38.168H91.6123V38.168L92.1123 38.168ZM120.648 34.7432L120.648 34.2432H120.648V34.7432ZM124.072 38.168L124.572 38.168V38.168H124.072ZM120.648 41.5918V42.0918H120.648L120.648 41.5918ZM117.224 38.168H116.724V38.168L117.224 38.168ZM106.24 8.60156L105.877 8.25825L105.877 8.25826L106.24 8.60156ZM108.361 8.54102L108.705 8.17751L108.705 8.17747L108.361 8.54102ZM108.422 10.6621L108.058 10.3188L108.058 10.3188L108.422 10.6621ZM106.863 12.3125L106.5 11.9692L106.5 11.9692L106.863 12.3125ZM105.399 16.7334L104.903 16.792L104.903 16.7921L105.399 16.7334ZM105.573 18.2041L105.077 18.2628V18.2628L105.573 18.2041ZM106.584 20.0859L106.907 19.7045L106.907 19.7044L106.584 20.0859ZM106.847 20.3086L106.523 20.69L106.524 20.6901L106.847 20.3086ZM109.737 20.5068L109.469 20.0847L109.469 20.0847L109.737 20.5068ZM110.042 20.3135L110.31 20.7356L110.31 20.7355L110.042 20.3135ZM110.724 19.3555L111.21 19.4705L111.21 19.4704L110.724 19.3555ZM110.862 18.7686L111.349 18.8835L111.349 18.8832L110.862 18.7686ZM110.598 18.0703L110.886 17.6618L110.886 17.6618L110.598 18.0703ZM109.9 18.0264L110.134 18.4685L110.134 18.4683L109.9 18.0264ZM109.555 18.209L109.321 17.7669L109.321 17.767L109.555 18.209ZM107.527 17.585L107.085 17.8188L107.085 17.8189L107.527 17.585ZM108.151 15.5576L107.918 15.1155L107.917 15.1158L108.151 15.5576ZM108.497 15.375L108.731 15.8171L108.731 15.8169L108.497 15.375ZM112.327 15.6201L112.615 15.2116L112.615 15.2116L112.327 15.6201ZM113.781 19.458L114.268 19.573L114.268 19.5729L113.781 19.458ZM113.643 20.0449L113.156 19.93L113.156 19.93L113.643 20.0449ZM111.65 22.8457L111.382 22.4237L111.382 22.4239L111.65 22.8457ZM111.347 23.0391L111.615 23.4611L111.615 23.4608L111.347 23.0391ZM104.908 22.5977L105.231 22.2161L105.231 22.2156L104.908 22.5977ZM104.645 22.375L104.321 22.7565L104.322 22.757L104.645 22.375ZM102.594 18.5557L103.09 18.497L103.09 18.497L102.594 18.5557ZM102.42 17.085L101.923 17.1436L101.923 17.1437L102.42 17.085ZM104.682 10.252L104.318 9.90865L104.318 9.90866L104.682 10.252ZM108.062 0.5L108.062 1C124.811 1.00009 138.78 13.6252 141.764 30.3486L142.256 30.2607L142.748 30.1729C139.687 13.0158 125.338 8.88407e-05 108.062 0L108.062 0.5ZM142.256 30.2607L142.228 30.76C142.966 30.8009 143.692 30.9513 144.376 31.2075L144.552 30.7393L144.727 30.271C143.946 29.9785 143.12 29.808 142.284 29.7615L142.256 30.2607ZM144.552 30.7393L144.376 31.2075C145.209 31.5194 145.966 31.9802 146.602 32.5616L146.939 32.1924L147.277 31.8232C146.543 31.1534 145.676 30.6265 144.727 30.271L144.552 30.7393ZM146.939 32.1924L146.602 32.5616C147.239 33.143 147.744 33.8343 148.09 34.594L148.545 34.3867L149 34.1794C148.596 33.294 148.01 32.4933 147.277 31.8232L146.939 32.1924ZM148.545 34.3867L148.09 34.594C148.436 35.3535 148.617 36.1676 148.624 36.9904L149.124 36.9863L149.624 36.9822C149.616 36.0172 149.403 35.0648 149 34.1794L148.545 34.3867ZM149.124 36.9863L148.624 36.9904C148.631 37.8137 148.463 38.632 148.129 39.398L148.588 39.5977L149.046 39.7973C149.435 38.9042 149.632 37.9472 149.624 36.9823L149.124 36.9863ZM148.588 39.5977L148.129 39.398C147.796 40.1639 147.302 40.8641 146.674 41.4581L147.018 41.8213L147.361 42.1844C148.083 41.501 148.657 40.6905 149.046 39.7973L148.588 39.5977ZM147.018 41.8213L146.674 41.4581C146.046 42.052 145.297 42.5276 144.469 42.8554L144.653 43.3203L144.837 43.7852C145.781 43.4117 146.639 42.868 147.361 42.1845L147.018 41.8213ZM144.653 43.3203L144.469 42.8554C143.754 43.1385 142.992 43.3055 142.216 43.3515L142.245 43.8506L142.275 44.3497C143.155 44.2976 144.021 44.1082 144.837 43.7852L144.653 43.3203ZM142.245 43.8506L141.753 43.762C138.748 60.4568 124.792 73.0527 108.062 73.0527L108.062 73.5527L108.062 74.0527C125.318 74.0526 139.654 61.067 142.737 43.9392L142.245 43.8506ZM108.062 73.5527L108.062 73.0527C91.3314 73.0526 77.3754 60.4568 74.37 43.762L73.8779 43.8506L73.3858 43.9392C76.4691 61.067 90.8048 74.0526 108.062 74.0527L108.062 73.5527ZM73.8779 43.8506L73.9075 43.3515C73.1318 43.3054 72.3698 43.1384 71.6547 42.8554L71.4707 43.3203L71.2867 43.7852C72.1024 44.1081 72.9688 44.2975 73.8483 44.3497L73.8779 43.8506ZM71.4707 43.3203L71.6547 42.8554C70.8267 42.5276 70.0777 42.052 69.4501 41.4581L69.1064 41.8213L68.7628 42.1845C69.4851 42.868 70.3431 43.4117 71.2867 43.7852L71.4707 43.3203ZM69.1064 41.8213L69.4501 41.4581C68.8228 40.8644 68.3292 40.1641 67.9955 39.398L67.5371 39.5977L67.0787 39.7973C67.4676 40.6901 68.0404 41.5008 68.7628 42.1844L69.1064 41.8213ZM67.5371 39.5977L67.9955 39.398C67.6617 38.6316 67.4933 37.8134 67.5 36.9904L67 36.9863L66.5 36.9823C66.4922 37.9476 66.6898 38.9045 67.0787 39.7973L67.5371 39.5977ZM67 36.9863L67.5 36.9904C67.5067 36.1676 67.6881 35.3535 68.0341 34.594L67.5791 34.3867L67.1241 34.1794C66.7208 35.0648 66.5079 36.0172 66.5 36.9822L67 36.9863ZM67.5791 34.3867L68.0341 34.594C68.3803 33.8343 68.8851 33.143 69.5217 32.5616L69.1846 32.1924L68.8474 31.8232C68.1136 32.4933 67.5275 33.294 67.1241 34.1794L67.5791 34.3867ZM69.1846 32.1924L69.5217 32.5616C70.1585 31.9801 70.9152 31.5195 71.7485 31.2075L71.5732 30.7393L71.3979 30.271C70.4485 30.6264 69.5811 31.1532 68.8474 31.8232L69.1846 32.1924ZM71.5732 30.7393L71.7485 31.2075C72.4327 30.9514 73.1578 30.801 73.895 30.76L73.8672 30.2607L73.8394 29.7615C73.0034 29.8081 72.1788 29.9787 71.398 30.271L71.5732 30.7393ZM73.8672 30.2607L74.3594 30.3486C77.3429 13.6252 91.3121 1.00015 108.062 1L108.062 0.5L108.062 0C90.785 0.000153273 76.4359 13.0158 73.375 30.1729L73.8672 30.2607ZM108.062 4.5L108.062 4C92.8943 4.00015 80.0641 15.4526 77.3125 30.8751L77.8047 30.9629L78.2969 31.0507C80.9709 16.0633 93.4202 5.00015 108.062 5L108.062 4.5ZM77.8047 30.9629L77.3125 30.8751C77.0274 32.4727 75.6819 33.6653 74.062 33.7557L74.0898 34.2549L74.1177 34.7541C76.2008 34.6379 77.9305 33.1044 78.2969 31.0507L77.8047 30.9629ZM74.0898 34.2549L74.062 33.7557C73.732 33.774 73.4091 33.8283 73.1015 33.9171L73.2402 34.3975L73.379 34.8778C73.6118 34.8106 73.8602 34.7684 74.1176 34.7541L74.0898 34.2549ZM73.2402 34.3975L73.0826 33.9229L72.818 34.0108L72.9756 34.4854L73.1332 34.9599L73.3978 34.872L73.2402 34.3975ZM72.9756 34.4854L72.8003 34.0171C72.3152 34.1987 71.8905 34.4615 71.5447 34.7773L71.8818 35.1465L72.219 35.5157C72.4683 35.2881 72.7825 35.0915 73.1509 34.9536L72.9756 34.4854ZM71.8818 35.1465L71.5446 34.7773C71.2 35.0921 70.9383 35.4546 70.7638 35.8376L71.2188 36.0449L71.6737 36.2523C71.7905 35.996 71.9707 35.7425 72.219 35.5157L71.8818 35.1465ZM71.2188 36.0449L70.7637 35.8376C70.5895 36.2201 70.5033 36.62 70.5 37.0154L71 37.0195L71.5 37.0236C71.5021 36.7691 71.5574 36.5076 71.6738 36.2522L71.2188 36.0449ZM71 37.0195L70.5 37.0156C70.4969 37.4107 70.5772 37.8126 70.7457 38.1996L71.2041 38L71.6625 37.8004C71.5492 37.5401 71.498 37.2768 71.5 37.0235L71 37.0195ZM71.2041 38L70.7457 38.1997C70.9138 38.5855 71.1694 38.955 71.5117 39.2791L71.8555 38.916L72.1992 38.5529C71.9522 38.3191 71.7756 38.06 71.6625 37.8003L71.2041 38ZM71.8555 38.916L71.5215 39.2881L71.6358 39.3907L71.9697 39.0186L72.3037 38.6464L72.1894 38.5439L71.8555 38.916ZM71.9697 39.0186L71.6441 39.398C71.9614 39.6702 72.3376 39.8995 72.7593 40.0665L72.9434 39.6016L73.1274 39.1367C72.8074 39.01 72.5271 38.838 72.2953 38.6391L71.9697 39.0186ZM72.9434 39.6016L72.7594 40.0665C73.0696 40.1892 73.3994 40.2752 73.74 40.3224L73.8086 39.8271L73.8772 39.3319C73.6131 39.2953 73.3609 39.229 73.1273 39.1366L72.9434 39.6016ZM73.8086 39.8271L73.7595 40.3247L74.0661 40.355L74.1152 39.8574L74.1644 39.3598L73.8577 39.3296L73.8086 39.8271ZM74.1152 39.8574L74.0641 40.3548L74.4059 40.39L74.457 39.8926L74.5082 39.3952L74.1664 39.36L74.1152 39.8574ZM74.457 39.8926L74.3849 40.3873C75.8615 40.6026 77.0539 41.7397 77.3224 43.2302L77.8145 43.1416L78.3065 43.053C77.9613 41.1363 76.4283 39.6747 74.5292 39.3978L74.457 39.8926ZM77.8145 43.1416L77.3224 43.2302C80.0939 58.6262 92.9115 70.0526 108.062 70.0527L108.062 69.5527L108.062 69.0527C93.4369 69.0526 80.9999 58.0147 78.3065 43.053L77.8145 43.1416ZM108.062 69.5527L108.062 70.0527C123.211 70.0526 136.029 58.6263 138.801 43.2302L138.309 43.1416L137.817 43.053C135.123 58.0148 122.686 69.0527 108.062 69.0527L108.062 69.5527ZM138.309 43.1416L138.796 43.2511L138.872 42.9162L138.384 42.8066L137.896 42.6971L137.821 43.0321L138.309 43.1416ZM138.384 42.8066L138.867 42.9369C139.255 41.4957 140.526 40.446 142.038 40.3565L142.009 39.8574L141.979 39.3583C140.034 39.4734 138.401 40.823 137.901 42.6764L138.384 42.8066ZM142.009 39.8574L142.038 40.3565C142.387 40.3359 142.727 40.2749 143.049 40.1765L142.903 39.6982L142.757 39.22C142.512 39.295 142.25 39.3423 141.979 39.3583L142.009 39.8574ZM142.903 39.6982L143.069 40.17L143.347 40.0724L143.182 39.6006L143.016 39.1288L142.738 39.2264L142.903 39.6982ZM143.182 39.6006L143.366 40.0654C143.846 39.875 144.269 39.6043 144.612 39.2792L144.269 38.916L143.925 38.5529C143.677 38.7878 143.363 38.9908 142.997 39.1357L143.182 39.6006ZM144.269 38.916L144.612 39.2791C144.956 38.9535 145.212 38.5837 145.379 38.1997L144.921 38L144.462 37.8003C144.35 38.0577 144.174 38.3172 143.925 38.5529L144.269 38.916ZM144.921 38L145.379 38.1996C145.547 37.8149 145.627 37.4132 145.624 37.0156L145.124 37.0195L144.624 37.0235C144.626 37.2799 144.574 37.5432 144.462 37.8004L144.921 38ZM145.124 37.0195L145.623 36.9897L145.608 36.7446L145.109 36.7744L144.61 36.8042L144.625 37.0494L145.124 37.0195ZM145.109 36.7744L145.606 36.7176C145.572 36.4203 145.491 36.1239 145.36 35.8376L144.905 36.0449L144.45 36.2522C144.538 36.444 144.591 36.6389 144.613 36.8312L145.109 36.7744ZM144.905 36.0449L145.36 35.8376C145.229 35.5503 145.049 35.2743 144.822 35.0214L144.45 35.3555L144.078 35.6896C144.239 35.8688 144.363 36.0597 144.45 36.2523L144.905 36.0449ZM144.45 35.3555L144.805 35.0027L144.597 34.7938L144.242 35.1465L143.888 35.4992L144.096 35.7082L144.45 35.3555ZM144.242 35.1465L144.579 34.7773C144.276 34.5003 143.913 34.2643 143.503 34.0883L143.306 34.5479L143.109 35.0074C143.418 35.14 143.686 35.3155 143.905 35.5157L144.242 35.1465ZM143.306 34.5479L143.491 34.0836L143.335 34.0211L143.149 34.4854L142.964 34.9496L143.12 35.0121L143.306 34.5479ZM143.149 34.4854L143.325 34.0171C142.931 33.8695 142.504 33.7802 142.062 33.7557L142.034 34.2549L142.006 34.7541C142.35 34.7732 142.677 34.8425 142.974 34.9536L143.149 34.4854ZM142.034 34.2549L142.062 33.7556C140.442 33.6657 139.096 32.473 138.811 30.8751L138.318 30.9629L137.826 31.0507C138.193 33.1048 139.923 34.6384 142.006 34.7541L142.034 34.2549ZM138.318 30.9629L138.811 30.8751C136.059 15.4525 123.229 4.00009 108.062 4L108.062 4.5L108.062 5C122.703 5.00009 135.152 16.0632 137.826 31.0507L138.318 30.9629ZM113.951 48.75L114.299 49.109C114.604 48.8138 115.026 48.7709 115.302 48.9555L115.58 48.54L115.858 48.1245C115.116 47.628 114.178 47.8338 113.603 48.391L113.951 48.75ZM115.58 48.54L115.302 48.9555C115.631 49.1761 115.653 49.5752 115.441 49.7911L115.798 50.1416L116.154 50.4921C116.871 49.7637 116.629 48.6407 115.858 48.1246L115.58 48.54ZM115.798 50.1416L115.441 49.7911C114.741 50.5033 113.915 51.1019 112.996 51.5592L113.219 52.0068L113.442 52.4545C114.458 51.9486 115.375 51.2849 116.154 50.4921L115.798 50.1416ZM113.219 52.0068L112.996 51.5592C111.723 52.1929 110.307 52.5366 108.865 52.5606L108.873 53.0605L108.881 53.5605C110.471 53.534 112.033 53.1554 113.442 52.4545L113.219 52.0068ZM108.873 53.0605L108.865 52.5606C107.422 52.5846 105.993 52.2885 104.696 51.6973L104.488 52.1523L104.281 52.6073C105.715 53.2609 107.291 53.5869 108.881 53.5605L108.873 53.0605ZM104.488 52.1523L104.696 51.6973C103.758 51.2701 102.907 50.6975 102.179 50.0072L101.835 50.3701L101.491 50.7331C102.301 51.5006 103.244 52.1349 104.281 52.6073L104.488 52.1523ZM101.835 50.3701L102.179 50.0072C101.96 49.7994 101.968 49.4011 102.288 49.1701L101.995 48.7646L101.702 48.3592C100.951 48.9019 100.751 50.0315 101.491 50.733L101.835 50.3701ZM101.995 48.7646L102.288 49.1701C102.555 48.9771 102.977 49.0049 103.29 49.2878L103.625 48.917L103.96 48.5462C103.368 48.0105 102.425 47.8382 101.703 48.3592L101.995 48.7646ZM103.625 48.917L103.29 49.2878C103.883 49.8242 104.563 50.2703 105.304 50.6083L105.512 50.1533L105.719 49.6983C105.069 49.4023 104.476 49.0126 103.96 48.5462L103.625 48.917ZM105.512 50.1533L105.304 50.6083C106.406 51.1103 107.616 51.361 108.837 51.3408L108.829 50.8408L108.821 50.3409C107.747 50.3587 106.684 50.1381 105.719 49.6983L105.512 50.1533ZM108.829 50.8408L108.837 51.3408C110.059 51.3204 111.259 51.0293 112.342 50.4906L112.119 50.043L111.896 49.5953C110.949 50.0669 109.895 50.323 108.821 50.3409L108.829 50.8408ZM112.119 50.043L112.342 50.4906C113.068 50.1292 113.728 49.6626 114.299 49.1089L113.951 48.75L113.603 48.3911C113.107 48.872 112.532 49.2791 111.896 49.5953L112.119 50.043ZM95.5361 34.7432V35.2432C97.1512 35.2432 98.4609 36.5529 98.4609 38.168H98.9609H99.4609C99.4609 36.0006 97.7035 34.2432 95.5361 34.2432V34.7432ZM98.9609 38.168L98.4609 38.168C98.4609 39.7828 97.1514 41.0918 95.5361 41.0918V41.5918V42.0918C97.7033 42.0918 99.4609 40.3355 99.4609 38.168L98.9609 38.168ZM95.5361 41.5918L95.5362 41.0918C93.9212 41.0916 92.6123 39.7829 92.6123 38.168L92.1123 38.168L91.6123 38.168C91.6123 40.3352 93.369 42.0916 95.5361 42.0918L95.5361 41.5918ZM92.1123 38.168H92.6123C92.6123 36.5529 93.9214 35.2433 95.5362 35.2432L95.5361 34.7432L95.5361 34.2432C93.3688 34.2434 91.6123 36.0009 91.6123 38.168H92.1123ZM120.648 34.7432L120.648 35.2432C122.263 35.2432 123.572 36.5528 123.572 38.168H124.072H124.572C124.572 36.0008 122.816 34.2432 120.648 34.2432L120.648 34.7432ZM124.072 38.168L123.572 38.168C123.572 39.783 122.263 41.0917 120.648 41.0918L120.648 41.5918L120.648 42.0918C122.816 42.0917 124.572 40.3353 124.572 38.168L124.072 38.168ZM120.648 41.5918V41.0918C119.033 41.0918 117.724 39.7828 117.724 38.168L117.224 38.168L116.724 38.168C116.724 40.3355 118.481 42.0918 120.648 42.0918V41.5918ZM117.224 38.168H117.724C117.724 36.5529 119.033 35.2432 120.648 35.2432V34.7432V34.2432C118.481 34.2432 116.724 36.0006 116.724 38.168H117.224ZM106.24 8.60156L106.604 8.94487C106.983 8.54346 107.616 8.52535 108.018 8.90456L108.361 8.54102L108.705 8.17747C107.902 7.41927 106.635 7.45519 105.877 8.25825L106.24 8.60156ZM108.361 8.54102L108.018 8.90452C108.42 9.28371 108.438 9.91726 108.058 10.3188L108.422 10.6621L108.785 11.0054C109.544 10.2024 109.508 8.93596 108.705 8.17751L108.361 8.54102ZM108.422 10.6621L108.058 10.3188L106.5 11.9692L106.863 12.3125L107.227 12.6558L108.785 11.0054L108.422 10.6621ZM106.863 12.3125L106.5 11.9692C105.28 13.261 104.695 15.0272 104.903 16.792L105.399 16.7334L105.896 16.6748C105.722 15.2044 106.21 13.7325 107.227 12.6558L106.863 12.3125ZM105.399 16.7334L104.903 16.7921L105.077 18.2628L105.573 18.2041L106.07 18.1454L105.896 16.6747L105.399 16.7334ZM105.573 18.2041L105.077 18.2628C105.178 19.1208 105.602 19.9091 106.261 20.4674L106.584 20.0859L106.907 19.7044C106.441 19.3095 106.141 18.752 106.07 18.1454L105.573 18.2041ZM106.584 20.0859L106.261 20.4674L106.523 20.69L106.847 20.3086L107.17 19.9272L106.907 19.7045L106.584 20.0859ZM106.847 20.3086L106.524 20.6901C107.507 21.523 108.918 21.6194 110.005 20.929L109.737 20.5068L109.469 20.0847C108.751 20.5408 107.819 20.4769 107.17 19.9271L106.847 20.3086ZM109.737 20.5068L110.005 20.929L110.31 20.7356L110.042 20.3135L109.774 19.8913L109.469 20.0847L109.737 20.5068ZM110.042 20.3135L110.31 20.7355C110.763 20.4474 111.087 19.9932 111.21 19.4705L110.724 19.3555L110.237 19.2405C110.174 19.5093 110.007 19.7432 109.774 19.8915L110.042 20.3135ZM110.724 19.3555L111.21 19.4704L111.349 18.8835L110.862 18.7686L110.376 18.6536L110.237 19.2405L110.724 19.3555ZM110.862 18.7686L111.349 18.8832C111.458 18.42 111.275 17.9364 110.886 17.6618L110.598 18.0703L110.309 18.4788C110.365 18.518 110.391 18.5876 110.376 18.6539L110.862 18.7686ZM110.598 18.0703L110.886 17.6618C110.526 17.4078 110.054 17.3792 109.666 17.5845L109.9 18.0264L110.134 18.4683C110.191 18.4384 110.259 18.4431 110.309 18.4789L110.598 18.0703ZM109.9 18.0264L109.667 17.5843L109.321 17.7669L109.555 18.209L109.788 18.6511L110.134 18.4685L109.9 18.0264ZM109.555 18.209L109.321 17.767C108.833 18.0252 108.228 17.8389 107.969 17.351L107.527 17.585L107.085 17.8189C107.602 18.7949 108.812 19.1672 109.788 18.651L109.555 18.209ZM107.527 17.585L107.969 17.3511C107.711 16.8633 107.897 16.258 108.385 15.9994L108.151 15.5576L107.917 15.1158C106.942 15.6326 106.569 16.8427 107.085 17.8188L107.527 17.585ZM108.151 15.5576L108.385 15.9997L108.731 15.8171L108.497 15.375L108.264 14.9329L107.918 15.1155L108.151 15.5576ZM108.497 15.375L108.731 15.8169C109.785 15.2587 111.064 15.3406 112.039 16.0286L112.327 15.6201L112.615 15.2116C111.333 14.3064 109.651 14.1986 108.263 14.9331L108.497 15.375ZM112.327 15.6201L112.039 16.0286C113.095 16.7739 113.592 18.0854 113.295 19.3431L113.781 19.458L114.268 19.5729C114.659 17.918 114.005 16.1922 112.615 15.2116L112.327 15.6201ZM113.781 19.458L113.295 19.343L113.156 19.93L113.643 20.0449L114.129 20.1599L114.268 19.573L113.781 19.458ZM113.643 20.0449L113.156 19.93C112.912 20.9608 112.276 21.8558 111.382 22.4237L111.65 22.8457L111.919 23.2677C113.033 22.5598 113.826 21.4443 114.129 20.1599L113.643 20.0449ZM111.65 22.8457L111.382 22.4239L111.078 22.6173L111.347 23.0391L111.615 23.4608L111.919 23.2675L111.65 22.8457ZM111.347 23.0391L111.079 22.617C109.252 23.7773 106.883 23.6148 105.231 22.2161L104.908 22.5977L104.585 22.9792C106.57 24.6607 109.419 24.8561 111.615 23.4611L111.347 23.0391ZM104.908 22.5977L105.231 22.2156L104.967 21.993L104.645 22.375L104.322 22.757L104.586 22.9797L104.908 22.5977ZM104.645 22.375L104.968 21.9935C103.922 21.1078 103.251 19.8579 103.09 18.497L102.594 18.5557L102.097 18.6143C102.288 20.2265 103.083 21.7072 104.321 22.7565L104.645 22.375ZM102.594 18.5557L103.09 18.497L102.916 17.0263L102.42 17.085L101.923 17.1437L102.097 18.6144L102.594 18.5557ZM102.42 17.085L102.916 17.0264C102.639 14.6734 103.418 12.3178 105.045 10.5952L104.682 10.252L104.318 9.90866C102.488 11.8465 101.611 14.4965 101.923 17.1436L102.42 17.085ZM104.682 10.252L105.045 10.5953L106.604 8.94486L106.24 8.60156L105.877 8.25826L104.318 9.90865L104.682 10.252Z" fill="#FF5D83"/>
<path d="M42.5 93.5527C44.433 93.5527 46 95.1197 46 97.0527V140.053C46 141.986 44.433 143.553 42.5 143.553C40.567 143.553 39 141.986 39 140.053V120.58L36.0361 120.594C33.8271 120.604 32.0277 118.821 32.0176 116.612C32.0077 114.403 33.7909 112.604 36 112.594L39 112.58V97.0527C39 95.1197 40.567 93.5527 42.5 93.5527ZM51.5 93.5527C53.433 93.5527 55 95.1197 55 97.0527V140.053C55 141.986 53.433 143.553 51.5 143.553C49.567 143.553 48 141.986 48 140.053V97.0527C48 95.1197 49.567 93.5527 51.5 93.5527ZM101.5 93.5527C103.433 93.5527 105 95.1197 105 97.0527V140.053C105 141.986 103.433 143.553 101.5 143.553C99.567 143.553 98 141.986 98 140.053V120.58L95.0361 120.594C92.8271 120.604 91.0277 118.821 91.0176 116.612C91.0077 114.403 92.7909 112.604 95 112.594L98 112.58V97.0527C98 95.1197 99.567 93.5527 101.5 93.5527ZM110.5 93.5527C112.433 93.5527 114 95.1197 114 97.0527V140.053C114 141.986 112.433 143.553 110.5 143.553C108.567 143.553 107 141.986 107 140.053V97.0527C107 95.1197 108.567 93.5527 110.5 93.5527ZM211 93.5527C213.209 93.5527 215 95.3436 215 97.5527V139.553C215 141.762 213.209 143.553 211 143.553C208.791 143.553 207 141.762 207 139.553V120.58L204.036 120.594C201.827 120.604 200.028 118.821 200.018 116.612C200.008 114.403 201.791 112.604 204 112.594L207 112.58V97.5527C207 95.3436 208.791 93.5527 211 93.5527ZM158 125.458C160.209 125.458 162 127.249 162 129.458C162 131.635 160.261 133.404 158.096 133.455C158.097 133.501 158.099 133.547 158.1 133.594L158.125 139.404C158.135 141.636 156.334 143.453 154.103 143.463C151.871 143.473 150.054 141.672 150.044 139.44L150.018 133.63C150.017 133.572 150.019 133.515 150.021 133.458H134.096C134.097 133.503 134.099 133.548 134.1 133.593L134.126 139.403C134.136 141.635 132.335 143.452 130.104 143.462C127.872 143.472 126.054 141.671 126.044 139.439L126.019 133.629C126.018 133.572 126.019 133.515 126.021 133.458H121C118.791 133.458 117 131.667 117 129.458C117 127.249 118.791 125.458 121 125.458H158ZM26 93.5527C28.209 93.5527 29.9997 95.1249 30 97.0645V129.353L30.0059 129.354C30.0028 131.159 29.6112 132.946 28.8545 134.613C28.0977 136.28 26.99 137.794 25.5947 139.068C24.1995 140.343 22.544 141.353 20.7227 142.041C18.9014 142.729 16.9496 143.081 14.9795 143.078C13.0095 143.075 11.0591 142.716 9.24023 142.021C7.42155 141.327 5.76968 140.312 4.37891 139.033C2.98796 137.754 1.88491 136.236 1.13379 134.566C0.417384 132.974 0.0351233 131.273 0.00390625 129.553H0V97.0645C0.000293282 95.1249 1.79104 93.5527 4 93.5527C6.20896 93.5527 7.99971 95.1249 8 97.0645V113.02C8.31 112.874 8.62593 112.739 8.94727 112.614C10.7042 111.933 12.5883 111.58 14.4912 111.577C16.3943 111.574 18.2797 111.92 20.0391 112.596C20.7184 112.857 21.3737 113.165 22 113.517V97.0645C22.0003 95.1249 23.791 93.5527 26 93.5527ZM85 93.5527C87.209 93.5527 88.9997 95.1249 89 97.0645V129.353L89.0059 129.354C89.0028 131.159 88.6112 132.946 87.8545 134.613C87.0977 136.28 85.99 137.794 84.5947 139.068C83.1995 140.343 81.544 141.353 79.7227 142.041C77.9014 142.729 75.9496 143.081 73.9795 143.078C72.0095 143.075 70.0591 142.716 68.2402 142.021C66.4216 141.327 64.7697 140.312 63.3789 139.033C61.988 137.754 60.8849 136.236 60.1338 134.566C59.4174 132.974 59.0351 131.273 59.0039 129.553H59V97.0645C59.0003 95.1249 60.791 93.5527 63 93.5527C65.209 93.5527 66.9997 95.1249 67 97.0645V113.02C67.31 112.874 67.6259 112.739 67.9473 112.614C69.7042 111.933 71.5883 111.58 73.4912 111.577C75.3943 111.574 77.2797 111.92 79.0391 112.596C79.7184 112.857 80.3737 113.165 81 113.517V97.0645C81.0003 95.1249 82.791 93.5527 85 93.5527ZM182 98.5527C191.389 98.5527 199 106.612 199 116.553C199 126.494 191.389 134.553 182 134.553C172.611 134.553 165 126.494 165 116.553C165 106.612 172.611 98.5527 182 98.5527ZM14.9844 120.563C14.0636 120.565 13.152 120.694 12.3018 120.942C11.4514 121.191 10.6787 121.554 10.0283 122.012C9.37795 122.469 8.86219 123.012 8.51074 123.609C8.23263 124.082 8.0626 124.581 8.00391 125.089H8V129.553H7.99414C8.03169 130.151 8.20781 130.74 8.51562 131.295C8.86625 131.927 9.38126 132.501 10.0303 132.985C10.6793 133.469 11.4502 133.854 12.2988 134.117C13.1474 134.38 14.0577 134.516 14.9766 134.518C15.8954 134.519 16.8059 134.386 17.6553 134.126C18.5046 133.866 19.2762 133.484 19.9268 133.002C20.5774 132.52 21.0945 131.948 21.4473 131.317C21.7979 130.691 21.9791 130.019 21.9824 129.34H22V125.064L21.9795 125.065C21.9191 124.558 21.7494 124.059 21.4697 123.588C21.1163 122.992 20.5983 122.451 19.9463 121.995C19.2944 121.54 18.5209 121.179 17.6699 120.934C16.8186 120.688 15.9054 120.562 14.9844 120.563ZM73.9844 120.563C73.0636 120.565 72.152 120.694 71.3018 120.942C70.4514 121.191 69.6787 121.554 69.0283 122.012C68.3779 122.469 67.8622 123.012 67.5107 123.609C67.2326 124.082 67.0626 124.581 67.0039 125.089H67V129.553H66.9941C67.0317 130.151 67.2078 130.74 67.5156 131.295C67.8662 131.927 68.3813 132.501 69.0303 132.985C69.6793 133.469 70.4502 133.854 71.2988 134.117C72.1474 134.38 73.0577 134.516 73.9766 134.518C74.8954 134.519 75.8059 134.386 76.6553 134.126C77.5046 133.866 78.2762 133.484 78.9268 133.002C79.5774 132.52 80.0945 131.948 80.4473 131.317C80.7979 130.691 80.9791 130.019 80.9824 129.34H81V125.064L80.9795 125.065C80.9191 124.558 80.7494 124.059 80.4697 123.588C80.1163 122.992 79.5983 122.451 78.9463 121.995C78.2944 121.54 77.5209 121.179 76.6699 120.934C75.8186 120.688 74.9054 120.562 73.9844 120.563ZM182 107.553C177.029 107.553 173 111.582 173 116.553C173 121.523 177.029 125.553 182 125.553C186.971 125.553 191 121.523 191 116.553C191 111.582 186.971 107.553 182 107.553ZM144.777 93.5527C148.815 93.5529 152.687 95.5403 155.542 99.0752C157.538 101.547 158.92 104.635 159.572 107.978C159.903 109.132 159.904 110.923 159.904 112.092V118.449C159.904 120.658 158.113 122.449 155.904 122.449C153.695 122.449 151.904 120.658 151.904 118.449V111.318C151.072 105.513 148.619 101.448 144.616 101.556C141.207 101.556 138.878 104.396 137.663 108.691C137.392 110.45 136.578 114.292 135.001 117.053C133.001 120.552 131.389 120.832 129.143 121.328C126.896 121.825 124.577 121.492 122.489 120.373C121.084 119.62 119.825 118.534 118.785 117.188C117.892 116.033 118.288 114.414 119.455 113.536L121.091 112.305C122.011 114.51 123.517 115.948 125.219 115.948C127.804 115.948 128.856 111.885 129.992 107.667C130.01 107.666 130.028 107.666 130.046 107.665C130.722 104.443 132.079 101.47 134.013 99.0752C136.868 95.5403 140.74 93.5528 144.777 93.5527ZM184 118.053C184 118.25 183.948 118.445 183.848 118.627C183.747 118.809 183.6 118.974 183.414 119.113C183.228 119.253 183.008 119.363 182.766 119.438C182.523 119.514 182.263 119.553 182 119.553C181.737 119.553 181.477 119.514 181.234 119.438C180.992 119.363 180.772 119.253 180.586 119.113C180.4 118.974 180.253 118.809 180.152 118.627C180.052 118.445 180 118.25 180 118.053H184ZM179 114.553C179.552 114.553 180 115 180 115.553C180 116.105 179.552 116.553 179 116.553C178.448 116.553 178 116.105 178 115.553C178 115 178.448 114.553 179 114.553ZM185 114.553C185.552 114.553 186 115 186 115.553C186 116.105 185.552 116.553 185 116.553C184.448 116.553 184 116.105 184 115.553C184 115 184.448 114.553 185 114.553Z" fill="#FF5D83"/>
</svg>
