<svg width="84" height="75" viewBox="0 0 84 75" fill="none" xmlns="http://www.w3.org/2000/svg">
<path d="M19.9043 41.5923C23.0563 41.5923 25.6122 44.1474 25.6123 47.2993C25.6123 50.4514 23.0563 53.0063 19.9043 53.0063C16.7524 53.0062 14.1973 50.4513 14.1973 47.2993C14.1974 44.1475 16.7524 41.5924 19.9043 41.5923Z" fill="#FFBECD"/>
<ellipse cx="63.2795" cy="47.2995" rx="5.70728" ry="5.70726" fill="#FFBECD"/>
<path d="M41.5617 0.5C58.5747 0.500087 72.7338 13.3205 75.756 30.2607C76.5432 30.3045 77.319 30.4649 78.0519 30.7393C78.9431 31.0729 79.7545 31.5668 80.4396 32.1924C81.1249 32.8181 81.6703 33.5642 82.0451 34.3867C82.4198 35.2091 82.6169 36.0924 82.6242 36.9863C82.6315 37.8804 82.4494 38.7681 82.0881 39.5977C81.7267 40.4272 81.1927 41.1826 80.5178 41.8213C79.8428 42.46 79.0393 42.9697 78.1535 43.3203C77.3878 43.6234 76.5733 43.8016 75.7453 43.8506C72.7009 60.7619 58.5551 73.5527 41.5617 73.5527C24.5683 73.5526 10.4224 60.7619 7.37811 43.8506C6.55048 43.8015 5.73628 43.6233 4.97089 43.3203C4.08508 42.9697 3.28159 42.46 2.60663 41.8213C1.93181 41.1826 1.39861 40.4271 1.03729 39.5977C0.675937 38.768 0.492902 37.8805 0.500183 36.9863C0.50751 36.0924 0.704615 35.2091 1.07928 34.3867C1.45408 33.5642 1.99952 32.8181 2.68475 32.1924C3.37001 31.5667 4.18205 31.0729 5.07343 30.7393C5.80593 30.4651 6.58077 30.3045 7.36737 30.2607C10.3896 13.3205 24.5487 0.500151 41.5617 0.5ZM41.5617 4.5C26.6574 4.50015 14.0177 15.7579 11.3049 30.9629C10.9792 32.7885 9.44156 34.1516 7.59003 34.2549C7.29626 34.2712 7.0106 34.3194 6.74042 34.3975L6.47577 34.4854C6.04903 34.6451 5.67957 34.8748 5.38202 35.1465C5.0855 35.4173 4.86461 35.7253 4.71893 36.0449C4.57364 36.3638 4.50285 36.6945 4.50018 37.0195C4.49763 37.3437 4.56337 37.6764 4.70428 38C4.84489 38.3228 5.06096 38.637 5.35565 38.916L5.46991 39.0186C5.74445 39.2541 6.07265 39.4547 6.44354 39.6016C6.71542 39.7091 7.00646 39.7853 7.30878 39.8271L7.61542 39.8574L7.95721 39.8926C9.64508 40.1387 11.0078 41.438 11.3146 43.1416C14.0471 58.3205 26.6744 69.5526 41.5617 69.5527C56.449 69.5527 69.0763 58.3205 71.8088 43.1416L71.884 42.8066C72.3284 41.1593 73.7804 39.9597 75.509 39.8574C75.8186 39.8391 76.1194 39.7849 76.4035 39.6982L76.6818 39.6006C77.1052 39.4329 77.4728 39.196 77.7687 38.916C78.0653 38.6353 78.2814 38.3207 78.4211 38C78.5608 37.6791 78.6268 37.3466 78.6242 37.0195L78.6096 36.7744C78.5816 36.5296 78.5144 36.284 78.4055 36.0449C78.2961 35.805 78.1444 35.5715 77.9504 35.3555L77.7424 35.1465C77.4811 34.9079 77.1657 34.7021 76.8058 34.5479L76.6496 34.4854C76.3041 34.356 75.9271 34.2767 75.5344 34.2549C73.6824 34.1521 72.1443 32.7889 71.8185 30.9629C69.1057 15.7579 56.466 4.50009 41.5617 4.5ZM47.4514 48.75C47.891 48.3238 48.5714 48.1994 49.0803 48.54C49.6304 48.9084 49.7622 49.6695 49.298 50.1416C48.5582 50.8941 47.6867 51.5252 46.7189 52.0068C45.378 52.6741 43.8895 53.0353 42.3732 53.0605C40.8568 53.0858 39.3545 52.7747 37.9885 52.1523C37.0011 51.7025 36.1045 51.0991 35.3351 50.3701C34.8554 49.9155 34.9594 49.1515 35.4953 48.7646C35.99 48.4076 36.6727 48.5077 37.1252 48.917C37.6796 49.4184 38.3161 49.8363 39.0119 50.1533C40.0456 50.6242 41.1818 50.8598 42.3293 50.8408C43.477 50.8217 44.6043 50.5481 45.6193 50.043C46.3001 49.7042 46.918 49.2673 47.4514 48.75ZM29.0363 34.7432C30.9275 34.7432 32.4611 36.2767 32.4611 38.168C32.4611 40.0592 30.9275 41.5918 29.0363 41.5918C27.1453 41.5916 25.6125 40.059 25.6125 38.168C25.6125 36.2769 27.1453 34.7434 29.0363 34.7432ZM54.1486 34.7432C56.0398 34.7432 57.5724 36.2768 57.5724 38.168C57.5724 40.0591 56.0398 41.5917 54.1486 41.5918C52.2574 41.5918 50.7238 40.0592 50.7238 38.168C50.7238 36.2767 52.2574 34.7432 54.1486 34.7432ZM39.7404 8.60156C40.3092 7.99932 41.2592 7.97231 41.8615 8.54102C42.4638 9.10983 42.4909 10.0598 41.9221 10.6621L40.3635 12.3125C39.2452 13.4968 38.7086 15.1158 38.8996 16.7334L39.0734 18.2041C39.16 18.9364 39.5215 19.6093 40.0842 20.0859L40.3469 20.3086C41.1631 21 42.3345 21.0801 43.2375 20.5068L43.5422 20.3135C43.8854 20.0953 44.1303 19.7513 44.2238 19.3555L44.3625 18.7686C44.4249 18.5038 44.3201 18.2272 44.0978 18.0703C43.8926 17.9255 43.6226 17.9088 43.4006 18.0264L43.0549 18.209C42.3228 18.5962 41.4151 18.3169 41.0275 17.585C40.6402 16.853 40.9198 15.9453 41.6516 15.5576L41.9973 15.375C43.2182 14.7286 44.6987 14.8235 45.8273 15.6201C47.0498 16.483 47.6253 18.0017 47.2814 19.458L47.1428 20.0449C46.8693 21.2026 46.1546 22.2078 45.1506 22.8457L44.8469 23.0391C42.8355 24.3167 40.2266 24.1378 38.4084 22.5977L38.1447 22.375C37.0025 21.4075 36.2695 20.0422 36.0939 18.5557L35.9201 17.085C35.625 14.585 36.4535 12.0822 38.1818 10.252L39.7404 8.60156Z" fill="#FF5D83"/>
<path d="M41.5617 0.5L41.5617 0H41.5617L41.5617 0.5ZM75.756 30.2607L75.2638 30.3486L75.3333 30.738L75.7283 30.76L75.756 30.2607ZM78.0519 30.7393L78.2273 30.271L78.2272 30.271L78.0519 30.7393ZM80.4396 32.1924L80.7768 31.8232L80.7768 31.8232L80.4396 32.1924ZM82.0451 34.3867L82.5001 34.1794L82.5001 34.1794L82.0451 34.3867ZM82.6242 36.9863L83.1242 36.9823V36.9822L82.6242 36.9863ZM82.0881 39.5977L82.5465 39.7973V39.7973L82.0881 39.5977ZM80.5178 41.8213L80.8614 42.1845L80.8614 42.1844L80.5178 41.8213ZM78.1535 43.3203L78.3375 43.7852L78.3375 43.7852L78.1535 43.3203ZM75.7453 43.8506L75.7158 43.3515L75.3229 43.3747L75.2532 43.762L75.7453 43.8506ZM41.5617 73.5527L41.5617 74.0527H41.5617L41.5617 73.5527ZM7.37811 43.8506L7.8702 43.762L7.80049 43.3748L7.40772 43.3515L7.37811 43.8506ZM4.97089 43.3203L4.78686 43.7852L4.78687 43.7852L4.97089 43.3203ZM2.60663 41.8213L2.26294 42.1844L2.26296 42.1845L2.60663 41.8213ZM1.03729 39.5977L0.57889 39.7973L0.578898 39.7973L1.03729 39.5977ZM0.500183 36.9863L0.000199884 36.9822L0.000199676 36.9823L0.500183 36.9863ZM1.07928 34.3867L0.624293 34.1794L0.62428 34.1794L1.07928 34.3867ZM2.68475 32.1924L2.3476 31.8232L2.34759 31.8232L2.68475 32.1924ZM5.07343 30.7393L4.89816 30.271L4.89813 30.271L5.07343 30.7393ZM7.36737 30.2607L7.39517 30.76L7.79012 30.738L7.8596 30.3486L7.36737 30.2607ZM41.5617 4.5L41.5617 4H41.5617L41.5617 4.5ZM11.3049 30.9629L10.8126 30.8751L10.8126 30.8751L11.3049 30.9629ZM7.59003 34.2549L7.61782 34.7541H7.61788L7.59003 34.2549ZM6.74042 34.3975L6.60169 33.9171L6.5922 33.9198L6.58283 33.9229L6.74042 34.3975ZM6.47577 34.4854L6.31818 34.0108L6.30927 34.0138L6.30048 34.0171L6.47577 34.4854ZM5.38202 35.1465L5.04487 34.7773L5.04482 34.7773L5.38202 35.1465ZM4.71893 36.0449L4.26396 35.8376L4.26393 35.8376L4.71893 36.0449ZM4.50018 37.0195L4.0002 37.0154L4.0002 37.0156L4.50018 37.0195ZM4.70428 38L4.24585 38.1996L4.24589 38.1997L4.70428 38ZM5.35565 38.916L5.01179 39.2793L5.0217 39.2881L5.35565 38.916ZM5.46991 39.0186L5.13587 39.3908L5.14433 39.398L5.46991 39.0186ZM6.44354 39.6016L6.25951 40.0665L6.25962 40.0665L6.44354 39.6016ZM7.30878 39.8271L7.24014 40.3224L7.24987 40.3238L7.25965 40.3247L7.30878 39.8271ZM7.61542 39.8574L7.66658 39.36L7.66454 39.3598L7.61542 39.8574ZM7.95721 39.8926L8.02936 39.3978L8.01889 39.3963L8.00837 39.3952L7.95721 39.8926ZM11.3146 43.1416L11.8067 43.053L11.8067 43.053L11.3146 43.1416ZM41.5617 69.5527L41.5617 70.0527H41.5617L41.5617 69.5527ZM71.8088 43.1416L71.3209 43.0321L71.3186 43.0425L71.3167 43.053L71.8088 43.1416ZM71.884 42.8066L71.4012 42.6764L71.3985 42.6867L71.3961 42.6971L71.884 42.8066ZM75.509 39.8574L75.5385 40.3565H75.5385L75.509 39.8574ZM76.4035 39.6982L76.5494 40.1765L76.5593 40.1735L76.569 40.17L76.4035 39.6982ZM76.6818 39.6006L76.8474 40.0724L76.8567 40.0691L76.866 40.0654L76.6818 39.6006ZM77.7687 38.916L78.1124 39.2792L78.1125 39.2791L77.7687 38.916ZM78.4211 38L78.8795 38.1997L78.8795 38.1996L78.4211 38ZM78.6242 37.0195L79.1242 37.0156L79.1241 37.0026L79.1233 36.9897L78.6242 37.0195ZM78.6096 36.7744L79.1087 36.7446L79.1079 36.7311L79.1063 36.7176L78.6096 36.7744ZM78.4055 36.0449L78.8605 35.8376L78.8604 35.8376L78.4055 36.0449ZM77.9504 35.3555L78.3224 35.0214L78.3138 35.0118L78.3048 35.0027L77.9504 35.3555ZM77.7424 35.1465L78.0967 34.7938L78.0883 34.7853L78.0795 34.7773L77.7424 35.1465ZM76.8058 34.5479L77.0029 34.0882L76.9915 34.0836L76.8058 34.5479ZM76.6496 34.4854L76.8353 34.021L76.8249 34.0171L76.6496 34.4854ZM75.5344 34.2549L75.5621 33.7557L75.5621 33.7556L75.5344 34.2549ZM71.8185 30.9629L72.3108 30.8751V30.8751L71.8185 30.9629ZM47.4514 48.75L47.1033 48.391L47.1033 48.3911L47.4514 48.75ZM49.0803 48.54L49.3584 48.1246L49.3584 48.1245L49.0803 48.54ZM49.298 50.1416L49.6546 50.4921L49.6546 50.4921L49.298 50.1416ZM46.7189 52.0068L46.9417 52.4545H46.9417L46.7189 52.0068ZM42.3732 53.0605L42.3815 53.5605H42.3816L42.3732 53.0605ZM37.9885 52.1523L37.7812 52.6073H37.7812L37.9885 52.1523ZM35.3351 50.3701L34.9912 50.733L34.9912 50.7331L35.3351 50.3701ZM35.4953 48.7646L35.2027 48.3592L35.2026 48.3592L35.4953 48.7646ZM37.1252 48.917L36.7898 49.2878L36.7898 49.2878L37.1252 48.917ZM39.0119 50.1533L38.8046 50.6083L38.8046 50.6083L39.0119 50.1533ZM42.3293 50.8408L42.3376 51.3408H42.3376L42.3293 50.8408ZM45.6193 50.043L45.8421 50.4906L45.8421 50.4906L45.6193 50.043ZM29.0363 34.7432V34.2432H29.0363L29.0363 34.7432ZM32.4611 38.168L32.9611 38.168V38.168H32.4611ZM29.0363 41.5918L29.0363 42.0918H29.0363V41.5918ZM25.6125 38.168H25.1125V38.168L25.6125 38.168ZM54.1486 34.7432L54.1486 34.2432H54.1486V34.7432ZM57.5724 38.168L58.0724 38.168V38.168H57.5724ZM54.1486 41.5918V42.0918H54.1486L54.1486 41.5918ZM50.7238 38.168H50.2238V38.168L50.7238 38.168ZM39.7404 8.60156L39.3769 8.25825L39.3769 8.25826L39.7404 8.60156ZM41.8615 8.54102L42.2048 8.17751L42.2048 8.17747L41.8615 8.54102ZM41.9221 10.6621L41.5586 10.3188L41.5585 10.3188L41.9221 10.6621ZM40.3635 12.3125L39.9999 11.9692L39.9999 11.9692L40.3635 12.3125ZM38.8996 16.7334L38.403 16.792L38.4031 16.7921L38.8996 16.7334ZM39.0734 18.2041L38.5769 18.2628V18.2628L39.0734 18.2041ZM40.0842 20.0859L40.4075 19.7045L40.4074 19.7044L40.0842 20.0859ZM40.3469 20.3086L40.0236 20.69L40.0237 20.6901L40.3469 20.3086ZM43.2375 20.5068L42.9696 20.0847L42.9695 20.0847L43.2375 20.5068ZM43.5422 20.3135L43.8101 20.7356L43.8104 20.7355L43.5422 20.3135ZM44.2238 19.3555L44.7104 19.4705L44.7104 19.4704L44.2238 19.3555ZM44.3625 18.7686L44.8491 18.8835L44.8492 18.8832L44.3625 18.7686ZM44.0978 18.0703L44.3862 17.6618L44.3861 17.6618L44.0978 18.0703ZM43.4006 18.0264L43.6341 18.4685L43.6345 18.4683L43.4006 18.0264ZM43.0549 18.209L42.8213 17.7669L42.8211 17.767L43.0549 18.209ZM41.0275 17.585L40.5856 17.8188L40.5856 17.8189L41.0275 17.585ZM41.6516 15.5576L41.418 15.1155L41.4175 15.1158L41.6516 15.5576ZM41.9973 15.375L42.2308 15.8171L42.2312 15.8169L41.9973 15.375ZM45.8273 15.6201L46.1157 15.2116L46.1157 15.2116L45.8273 15.6201ZM47.2814 19.458L47.768 19.573L47.7681 19.5729L47.2814 19.458ZM47.1428 20.0449L46.6562 19.93L46.6562 19.93L47.1428 20.0449ZM45.1506 22.8457L44.8825 22.4237L44.882 22.4239L45.1506 22.8457ZM44.8469 23.0391L45.1149 23.4611L45.1154 23.4608L44.8469 23.0391ZM38.4084 22.5977L38.7315 22.2161L38.731 22.2156L38.4084 22.5977ZM38.1447 22.375L37.8215 22.7565L37.8221 22.757L38.1447 22.375ZM36.0939 18.5557L36.5905 18.497L36.5905 18.497L36.0939 18.5557ZM35.9201 17.085L35.4236 17.1436L35.4236 17.1437L35.9201 17.085ZM38.1818 10.252L37.8183 9.90865L37.8183 9.90866L38.1818 10.252ZM41.5617 0.5L41.5617 1C58.3111 1.00009 72.2803 13.6252 75.2638 30.3486L75.756 30.2607L76.2483 30.1729C73.1873 13.0158 58.8383 8.88407e-05 41.5617 0L41.5617 0.5ZM75.756 30.2607L75.7283 30.76C76.4662 30.8009 77.1921 30.9513 77.8766 31.2075L78.0519 30.7393L78.2272 30.271C77.4458 29.9785 76.6202 29.808 75.7838 29.7615L75.756 30.2607ZM78.0519 30.7393L77.8766 31.2075C78.7096 31.5194 79.4657 31.9802 80.1025 32.5616L80.4396 32.1924L80.7768 31.8232C80.0433 31.1534 79.1766 30.6265 78.2273 30.271L78.0519 30.7393ZM80.4396 32.1924L80.1025 32.5616C80.7391 33.143 81.244 33.8343 81.5901 34.594L82.0451 34.3867L82.5001 34.1794C82.0967 33.294 81.5106 32.4933 80.7768 31.8232L80.4396 32.1924ZM82.0451 34.3867L81.5901 34.594C81.9361 35.3535 82.1175 36.1676 82.1242 36.9904L82.6242 36.9863L83.1242 36.9822C83.1163 36.0172 82.9035 35.0648 82.5001 34.1794L82.0451 34.3867ZM82.6242 36.9863L82.1242 36.9904C82.1309 37.8137 81.9633 38.632 81.6297 39.398L82.0881 39.5977L82.5465 39.7973C82.9355 38.9042 83.132 37.9472 83.1242 36.9823L82.6242 36.9863ZM82.0881 39.5977L81.6297 39.398C81.296 40.1639 80.8017 40.8641 80.1741 41.4581L80.5178 41.8213L80.8614 42.1844C81.5836 41.501 82.1574 40.6905 82.5465 39.7973L82.0881 39.5977ZM80.5178 41.8213L80.1741 41.4581C79.5465 42.052 78.7975 42.5276 77.9695 42.8554L78.1535 43.3203L78.3375 43.7852C79.2811 43.4117 80.1391 42.868 80.8614 42.1845L80.5178 41.8213ZM78.1535 43.3203L77.9695 42.8554C77.2541 43.1385 76.4918 43.3055 75.7158 43.3515L75.7453 43.8506L75.7748 44.3497C76.6547 44.2976 77.5215 44.1082 78.3375 43.7852L78.1535 43.3203ZM75.7453 43.8506L75.2532 43.762C72.2478 60.4568 58.2919 73.0527 41.5617 73.0527L41.5617 73.5527L41.5617 74.0527C58.8184 74.0526 73.1541 61.067 76.2374 43.9392L75.7453 43.8506ZM41.5617 73.5527L41.5617 73.0527C24.8316 73.0526 10.8755 60.4568 7.8702 43.762L7.37811 43.8506L6.88602 43.9392C9.96933 61.067 24.305 74.0526 41.5617 74.0527L41.5617 73.5527ZM7.37811 43.8506L7.40772 43.3515C6.63197 43.3054 5.86998 43.1384 5.1549 42.8554L4.97089 43.3203L4.78687 43.7852C5.60258 44.1081 6.46898 44.2975 7.3485 44.3497L7.37811 43.8506ZM4.97089 43.3203L5.15492 42.8554C4.32689 42.5276 3.5779 42.052 2.9503 41.4581L2.60663 41.8213L2.26296 42.1845C2.98527 42.868 3.84328 43.4117 4.78686 43.7852L4.97089 43.3203ZM2.60663 41.8213L2.95032 41.4581C2.323 40.8644 1.82942 40.1641 1.49569 39.398L1.03729 39.5977L0.578898 39.7973C0.967798 40.6901 1.54062 41.5008 2.26294 42.1844L2.60663 41.8213ZM1.03729 39.5977L1.49569 39.398C1.16187 38.6316 0.993465 37.8134 1.00017 36.9904L0.500183 36.9863L0.000199676 36.9823C-0.00766098 37.9476 0.190003 38.9045 0.57889 39.7973L1.03729 39.5977ZM0.500183 36.9863L1.00017 36.9904C1.00691 36.1676 1.18829 35.3535 1.53429 34.594L1.07928 34.3867L0.62428 34.1794C0.220938 35.0648 0.00810942 36.0172 0.000199884 36.9822L0.500183 36.9863ZM1.07928 34.3867L1.53428 34.594C1.88044 33.8343 2.38525 33.143 3.02192 32.5616L2.68475 32.1924L2.34759 31.8232C1.61378 32.4933 1.02773 33.294 0.624293 34.1794L1.07928 34.3867ZM2.68475 32.1924L3.02191 32.5616C3.65871 31.9801 4.41543 31.5195 5.24872 31.2075L5.07343 30.7393L4.89813 30.271C3.94867 30.6264 3.08131 31.1532 2.3476 31.8232L2.68475 32.1924ZM5.07343 30.7393L5.24869 31.2075C5.9329 30.9514 6.65794 30.801 7.39517 30.76L7.36737 30.2607L7.33957 29.7615C6.50359 29.8081 5.67896 29.9787 4.89816 30.271L5.07343 30.7393ZM7.36737 30.2607L7.8596 30.3486C10.8431 13.6252 24.8123 1.00015 41.5617 1L41.5617 0.5L41.5617 0C24.2852 0.000153273 9.93606 13.0158 6.87514 30.1729L7.36737 30.2607ZM41.5617 4.5L41.5617 4C26.3945 4.00015 13.5642 15.4526 10.8126 30.8751L11.3049 30.9629L11.7971 31.0507C14.4711 16.0633 26.9204 5.00015 41.5617 5L41.5617 4.5ZM11.3049 30.9629L10.8126 30.8751C10.5276 32.4727 9.18211 33.6653 7.56218 33.7557L7.59003 34.2549L7.61788 34.7541C9.70101 34.6379 11.4307 33.1044 11.7971 31.0507L11.3049 30.9629ZM7.59003 34.2549L7.56223 33.7557C7.23218 33.774 6.90924 33.8283 6.60169 33.9171L6.74042 34.3975L6.87915 34.8778C7.11197 34.8106 7.36034 34.7684 7.61782 34.7541L7.59003 34.2549ZM6.74042 34.3975L6.58283 33.9229L6.31818 34.0108L6.47577 34.4854L6.63336 34.9599L6.89801 34.872L6.74042 34.3975ZM6.47577 34.4854L6.30048 34.0171C5.81538 34.1987 5.39067 34.4615 5.04487 34.7773L5.38202 35.1465L5.71916 35.5157C5.96847 35.2881 6.28268 35.0915 6.65106 34.9536L6.47577 34.4854ZM5.38202 35.1465L5.04482 34.7773C4.70016 35.0921 4.43848 35.4546 4.26396 35.8376L4.71893 36.0449L5.17391 36.2523C5.29073 35.996 5.47083 35.7425 5.71922 35.5157L5.38202 35.1465ZM4.71893 36.0449L4.26393 35.8376C4.08969 36.2201 4.00344 36.62 4.0002 37.0154L4.50018 37.0195L5.00017 37.0236C5.00225 36.7691 5.0576 36.5076 5.17394 36.2522L4.71893 36.0449ZM4.50018 37.0195L4.0002 37.0156C3.99709 37.4107 4.07735 37.8126 4.24585 38.1996L4.70428 38L5.16272 37.8004C5.0494 37.5401 4.99817 37.2768 5.00017 37.0235L4.50018 37.0195ZM4.70428 38L4.24589 38.1997C4.41397 38.5855 4.66955 38.955 5.01192 39.2791L5.35565 38.916L5.69939 38.5529C5.45237 38.3191 5.27582 38.06 5.16268 37.8003L4.70428 38ZM5.35565 38.916L5.0217 39.2881L5.13595 39.3907L5.46991 39.0186L5.80386 38.6464L5.68961 38.5439L5.35565 38.916ZM5.46991 39.0186L5.14433 39.398C5.46158 39.6702 5.83775 39.8995 6.25951 40.0665L6.44354 39.6016L6.62757 39.1367C6.30754 39.01 6.02732 38.838 5.79549 38.6391L5.46991 39.0186ZM6.44354 39.6016L6.25962 40.0665C6.56979 40.1892 6.89963 40.2752 7.24014 40.3224L7.30878 39.8271L7.37741 39.3319C7.11329 39.2953 6.86106 39.229 6.62747 39.1366L6.44354 39.6016ZM7.30878 39.8271L7.25965 40.3247L7.56629 40.355L7.61542 39.8574L7.66454 39.3598L7.3579 39.3296L7.30878 39.8271ZM7.61542 39.8574L7.56426 40.3548L7.90606 40.39L7.95721 39.8926L8.00837 39.3952L7.66658 39.36L7.61542 39.8574ZM7.95721 39.8926L7.88507 40.3873C9.36169 40.6026 10.5541 41.7397 10.8226 43.2302L11.3146 43.1416L11.8067 43.053C11.4615 41.1363 9.92846 39.6747 8.02936 39.3978L7.95721 39.8926ZM11.3146 43.1416L10.8225 43.2302C13.5941 58.6262 26.4117 70.0526 41.5617 70.0527L41.5617 69.5527L41.5617 69.0527C26.9371 69.0526 14.5001 58.0147 11.8067 43.053L11.3146 43.1416ZM41.5617 69.5527L41.5617 70.0527C56.7117 70.0526 69.5293 58.6263 72.3009 43.2302L71.8088 43.1416L71.3167 43.053C68.6233 58.0148 56.1863 69.0527 41.5617 69.0527L41.5617 69.5527ZM71.8088 43.1416L72.2966 43.2511L72.3718 42.9162L71.884 42.8066L71.3961 42.6971L71.3209 43.0321L71.8088 43.1416ZM71.884 42.8066L72.3667 42.9369C72.7555 41.4957 74.0262 40.446 75.5385 40.3565L75.509 39.8574L75.4794 39.3583C73.5346 39.4734 71.9013 40.823 71.4012 42.6764L71.884 42.8066ZM75.509 39.8574L75.5385 40.3565C75.8869 40.3359 76.2268 40.2749 76.5494 40.1765L76.4035 39.6982L76.2576 39.22C76.012 39.295 75.7502 39.3423 75.4794 39.3583L75.509 39.8574ZM76.4035 39.6982L76.569 40.17L76.8474 40.0724L76.6818 39.6006L76.5163 39.1288L76.238 39.2264L76.4035 39.6982ZM76.6818 39.6006L76.866 40.0654C77.3467 39.875 77.7689 39.6043 78.1124 39.2792L77.7687 38.916L77.4251 38.5529C77.1768 38.7878 76.8637 38.9908 76.4977 39.1357L76.6818 39.6006ZM77.7687 38.916L78.1125 39.2791C78.4564 38.9535 78.7122 38.5837 78.8795 38.1997L78.4211 38L77.9627 37.8003C77.8506 38.0577 77.6741 38.3172 77.425 38.5529L77.7687 38.916ZM78.4211 38L78.8795 38.1996C79.047 37.8149 79.1273 37.4132 79.1242 37.0156L78.6242 37.0195L78.1242 37.0235C78.1262 37.2799 78.0746 37.5432 77.9626 37.8004L78.4211 38ZM78.6242 37.0195L79.1233 36.9897L79.1087 36.7446L78.6096 36.7744L78.1105 36.8042L78.1251 37.0494L78.6242 37.0195ZM78.6096 36.7744L79.1063 36.7176C79.0723 36.4203 78.9909 36.1239 78.8605 35.8376L78.4055 36.0449L77.9504 36.2522C78.0378 36.444 78.0908 36.6389 78.1128 36.8312L78.6096 36.7744ZM78.4055 36.0449L78.8604 35.8376C78.7295 35.5503 78.5495 35.2743 78.3224 35.0214L77.9504 35.3555L77.5784 35.6896C77.7393 35.8688 77.8627 36.0597 77.9505 36.2523L78.4055 36.0449ZM77.9504 35.3555L78.3048 35.0027L78.0967 34.7938L77.7424 35.1465L77.388 35.4992L77.596 35.7082L77.9504 35.3555ZM77.7424 35.1465L78.0795 34.7773C77.7762 34.5003 77.4133 34.2643 77.0029 34.0883L76.8058 34.5479L76.6088 35.0074C76.9181 35.14 77.186 35.3155 77.4052 35.5157L77.7424 35.1465ZM76.8058 34.5479L76.9915 34.0836L76.8353 34.0211L76.6496 34.4854L76.4639 34.9496L76.6202 35.0121L76.8058 34.5479ZM76.6496 34.4854L76.8249 34.0171C76.4307 33.8695 76.0038 33.7802 75.5621 33.7557L75.5344 34.2549L75.5066 34.7541C75.8503 34.7732 76.1776 34.8425 76.4743 34.9536L76.6496 34.4854ZM75.5344 34.2549L75.5621 33.7556C73.9418 33.6657 72.5959 32.473 72.3108 30.8751L71.8185 30.9629L71.3263 31.0507C71.6928 33.1048 73.423 34.6384 75.5066 34.7541L75.5344 34.2549ZM71.8185 30.9629L72.3108 30.8751C69.5591 15.4525 56.7289 4.00009 41.5617 4L41.5617 4.5L41.5617 5C56.203 5.00009 68.6523 16.0632 71.3263 31.0507L71.8185 30.9629ZM47.4514 48.75L47.7994 49.109C48.1039 48.8138 48.5262 48.7709 48.8021 48.9555L49.0803 48.54L49.3584 48.1245C48.6166 47.628 47.6781 47.8338 47.1033 48.391L47.4514 48.75ZM49.0803 48.54L48.8021 48.9555C49.1316 49.1761 49.1537 49.5752 48.9415 49.7911L49.298 50.1416L49.6546 50.4921C50.3707 49.7637 50.1293 48.6407 49.3584 48.1246L49.0803 48.54ZM49.298 50.1416L48.9415 49.7911C48.2413 50.5033 47.4152 51.1019 46.4962 51.5592L46.7189 52.0068L46.9417 52.4545C47.9582 51.9486 48.8751 51.2849 49.6546 50.4921L49.298 50.1416ZM46.7189 52.0068L46.4962 51.5592C45.2228 52.1929 43.8076 52.5366 42.3649 52.5606L42.3732 53.0605L42.3816 53.5605C43.9714 53.534 45.5333 53.1554 46.9417 52.4545L46.7189 52.0068ZM42.3732 53.0605L42.3649 52.5606C40.922 52.5846 39.4934 52.2885 38.1958 51.6973L37.9885 52.1523L37.7812 52.6073C39.2156 53.2609 40.7916 53.5869 42.3815 53.5605L42.3732 53.0605ZM37.9885 52.1523L38.1958 51.6973C37.258 51.2701 36.4076 50.6975 35.679 50.0072L35.3351 50.3701L34.9912 50.7331C35.8013 51.5006 36.7443 52.1349 37.7812 52.6073L37.9885 52.1523ZM35.3351 50.3701L35.6791 50.0072C35.4599 49.7994 35.4679 49.4011 35.788 49.1701L35.4953 48.7646L35.2026 48.3592C34.4509 48.9019 34.251 50.0315 34.9912 50.733L35.3351 50.3701ZM35.4953 48.7646L35.7879 49.1701C36.0553 48.9771 36.4771 49.0049 36.7898 49.2878L37.1252 48.917L37.4606 48.5462C36.8684 48.0105 35.9248 47.8382 35.2027 48.3592L35.4953 48.7646ZM37.1252 48.917L36.7898 49.2878C37.3829 49.8242 38.0627 50.2703 38.8046 50.6083L39.0119 50.1533L39.2192 49.6983C38.5695 49.4023 37.9763 49.0126 37.4606 48.5462L37.1252 48.917ZM39.0119 50.1533L38.8046 50.6083C39.9066 51.1103 41.1165 51.361 42.3376 51.3408L42.3293 50.8408L42.321 50.3409C41.2471 50.3587 40.1846 50.1381 39.2192 49.6983L39.0119 50.1533ZM42.3293 50.8408L42.3376 51.3408C43.559 51.3204 44.7597 51.0293 45.8421 50.4906L45.6193 50.043L45.3966 49.5953C44.449 50.0669 43.3951 50.323 42.321 50.3409L42.3293 50.8408ZM45.6193 50.043L45.8421 50.4906C46.5683 50.1292 47.2286 49.6626 47.7995 49.1089L47.4514 48.75L47.1033 48.3911C46.6074 48.872 46.0319 49.2791 45.3965 49.5953L45.6193 50.043ZM29.0363 34.7432V35.2432C30.6514 35.2432 31.9611 36.5529 31.9611 38.168H32.4611H32.9611C32.9611 36.0006 31.2037 34.2432 29.0363 34.2432V34.7432ZM32.4611 38.168L31.9611 38.168C31.9611 39.7828 30.6516 41.0918 29.0363 41.0918V41.5918V42.0918C31.2035 42.0918 32.9611 40.3355 32.9611 38.168L32.4611 38.168ZM29.0363 41.5918L29.0364 41.0918C27.4214 41.0916 26.1125 39.7829 26.1125 38.168L25.6125 38.168L25.1125 38.168C25.1125 40.3352 26.8692 42.0916 29.0363 42.0918L29.0363 41.5918ZM25.6125 38.168H26.1125C26.1125 36.5529 27.4215 35.2433 29.0364 35.2432L29.0363 34.7432L29.0363 34.2432C26.869 34.2434 25.1125 36.0009 25.1125 38.168H25.6125ZM54.1486 34.7432L54.1486 35.2432C55.7635 35.2432 57.0724 36.5528 57.0724 38.168H57.5724H58.0724C58.0724 36.0008 56.3161 34.2432 54.1486 34.2432L54.1486 34.7432ZM57.5724 38.168L57.0724 38.168C57.0724 39.783 55.7636 41.0917 54.1486 41.0918L54.1486 41.5918L54.1486 42.0918C56.3159 42.0917 58.0724 40.3353 58.0724 38.168L57.5724 38.168ZM54.1486 41.5918V41.0918C52.5334 41.0918 51.2238 39.7828 51.2238 38.168L50.7238 38.168L50.2238 38.168C50.2239 40.3355 51.9814 42.0918 54.1486 42.0918V41.5918ZM50.7238 38.168H51.2238C51.2238 36.5529 52.5335 35.2432 54.1486 35.2432V34.7432V34.2432C51.9813 34.2432 50.2238 36.0006 50.2238 38.168H50.7238ZM39.7404 8.60156L40.1039 8.94487C40.483 8.54346 41.1166 8.52535 41.5182 8.90456L41.8615 8.54102L42.2048 8.17747C41.4018 7.41927 40.1354 7.45519 39.3769 8.25825L39.7404 8.60156ZM41.8615 8.54102L41.5182 8.90452C41.9197 9.28371 41.9378 9.91726 41.5586 10.3188L41.9221 10.6621L42.2856 11.0054C43.044 10.2024 43.0079 8.93596 42.2048 8.17751L41.8615 8.54102ZM41.9221 10.6621L41.5585 10.3188L39.9999 11.9692L40.3635 12.3125L40.727 12.6558L42.2856 11.0054L41.9221 10.6621ZM40.3635 12.3125L39.9999 11.9692C38.7801 13.261 38.1947 15.0272 38.403 16.792L38.8996 16.7334L39.3961 16.6748C39.2226 15.2044 39.7103 13.7325 40.727 12.6558L40.3635 12.3125ZM38.8996 16.7334L38.4031 16.7921L38.5769 18.2628L39.0734 18.2041L39.57 18.1454L39.3961 16.6747L38.8996 16.7334ZM39.0734 18.2041L38.5769 18.2628C38.6783 19.1208 39.1018 19.9091 39.761 20.4674L40.0842 20.0859L40.4074 19.7044C39.9412 19.3095 39.6417 18.752 39.57 18.1454L39.0734 18.2041ZM40.0842 20.0859L39.7609 20.4674L40.0236 20.69L40.3469 20.3086L40.6702 19.9272L40.4075 19.7045L40.0842 20.0859ZM40.3469 20.3086L40.0237 20.6901C41.0069 21.523 42.4178 21.6194 43.5055 20.929L43.2375 20.5068L42.9695 20.0847C42.2511 20.5408 41.3192 20.4769 40.67 19.9271L40.3469 20.3086ZM43.2375 20.5068L43.5054 20.929L43.8101 20.7356L43.5422 20.3135L43.2743 19.8913L42.9696 20.0847L43.2375 20.5068ZM43.5422 20.3135L43.8104 20.7355C44.2636 20.4474 44.5869 19.9932 44.7104 19.4705L44.2238 19.3555L43.7372 19.2405C43.6737 19.5093 43.5073 19.7432 43.274 19.8915L43.5422 20.3135ZM44.2238 19.3555L44.7104 19.4704L44.8491 18.8835L44.3625 18.7686L43.8759 18.6536L43.7372 19.2405L44.2238 19.3555ZM44.3625 18.7686L44.8492 18.8832C44.9583 18.42 44.7751 17.9364 44.3862 17.6618L44.0978 18.0703L43.8095 18.4788C43.8651 18.518 43.8914 18.5876 43.8758 18.6539L44.3625 18.7686ZM44.0978 18.0703L44.3861 17.6618C44.0262 17.4078 43.5543 17.3792 43.1666 17.5845L43.4006 18.0264L43.6345 18.4683C43.6909 18.4384 43.759 18.4431 43.8096 18.4789L44.0978 18.0703ZM43.4006 18.0264L43.167 17.5843L42.8213 17.7669L43.0549 18.209L43.2884 18.6511L43.6341 18.4685L43.4006 18.0264ZM43.0549 18.209L42.8211 17.767C42.333 18.0252 41.7277 17.8389 41.4694 17.351L41.0275 17.585L40.5856 17.8189C41.1024 18.7949 42.3127 19.1672 43.2886 18.651L43.0549 18.209ZM41.0275 17.585L41.4695 17.3511C41.2113 16.8633 41.3976 16.258 41.8856 15.9994L41.6516 15.5576L41.4175 15.1158C40.4419 15.6326 40.0691 16.8427 40.5856 17.8188L41.0275 17.585ZM41.6516 15.5576L41.8851 15.9997L42.2308 15.8171L41.9973 15.375L41.7637 14.9329L41.418 15.1155L41.6516 15.5576ZM41.9973 15.375L42.2312 15.8169C43.2856 15.2587 44.5642 15.3406 45.539 16.0286L45.8273 15.6201L46.1157 15.2116C44.8331 14.3064 43.1508 14.1986 41.7633 14.9331L41.9973 15.375ZM45.8273 15.6201L45.539 16.0286C46.5948 16.7739 47.0917 18.0854 46.7948 19.3431L47.2814 19.458L47.7681 19.5729C48.1588 17.918 47.5048 16.1922 46.1157 15.2116L45.8273 15.6201ZM47.2814 19.458L46.7948 19.343L46.6562 19.93L47.1428 20.0449L47.6294 20.1599L47.768 19.573L47.2814 19.458ZM47.1428 20.0449L46.6562 19.93C46.4127 20.9608 45.7763 21.8558 44.8825 22.4237L45.1506 22.8457L45.4187 23.2677C46.5329 22.5598 47.326 21.4443 47.6294 20.1599L47.1428 20.0449ZM45.1506 22.8457L44.882 22.4239L44.5783 22.6173L44.8469 23.0391L45.1154 23.4608L45.4191 23.2675L45.1506 22.8457ZM44.8469 23.0391L44.5788 22.617C42.7521 23.7773 40.3828 23.6148 38.7315 22.2161L38.4084 22.5977L38.0852 22.9792C40.0704 24.6607 42.9188 24.8561 45.1149 23.4611L44.8469 23.0391ZM38.4084 22.5977L38.731 22.2156L38.4673 21.993L38.1447 22.375L37.8221 22.757L38.0858 22.9797L38.4084 22.5977ZM38.1447 22.375L38.4679 21.9935C37.4223 21.1078 36.7512 19.8579 36.5905 18.497L36.0939 18.5557L35.5974 18.6143C35.7878 20.2265 36.5828 21.7072 37.8215 22.7565L38.1447 22.375ZM36.0939 18.5557L36.5905 18.497L36.4166 17.0263L35.9201 17.085L35.4236 17.1437L35.5974 18.6144L36.0939 18.5557ZM35.9201 17.085L36.4167 17.0264C36.1389 14.6734 36.9187 12.3178 38.5453 10.5952L38.1818 10.252L37.8183 9.90866C35.9883 11.8465 35.1111 14.4965 35.4236 17.1436L35.9201 17.085ZM38.1818 10.252L38.5453 10.5953L40.1039 8.94486L39.7404 8.60156L39.3769 8.25826L37.8183 9.90865L38.1818 10.252Z" fill="#FF5D83"/>
</svg>
