<svg width="215" height="50" viewBox="0 0 215 50" fill="none" xmlns="http://www.w3.org/2000/svg">
<path d="M42.5 0C44.433 0 46 1.567 46 3.5V46.5C46 48.433 44.433 50 42.5 50C40.567 50 39 48.433 39 46.5V27.0273L36.0361 27.041C33.8271 27.0509 32.0277 25.2685 32.0176 23.0596C32.0077 20.8505 33.7909 19.0509 36 19.041L39 19.0273V3.5C39 1.567 40.567 0 42.5 0ZM51.5 0C53.433 0 55 1.567 55 3.5V46.5C55 48.433 53.433 50 51.5 50C49.567 50 48 48.433 48 46.5V3.5C48 1.567 49.567 0 51.5 0ZM101.5 0C103.433 0 105 1.567 105 3.5V46.5C105 48.433 103.433 50 101.5 50C99.567 50 98 48.433 98 46.5V27.0273L95.0361 27.041C92.8271 27.0509 91.0277 25.2685 91.0176 23.0596C91.0077 20.8505 92.7909 19.0509 95 19.041L98 19.0273V3.5C98 1.567 99.567 0 101.5 0ZM110.5 0C112.433 0 114 1.567 114 3.5V46.5C114 48.433 112.433 50 110.5 50C108.567 50 107 48.433 107 46.5V3.5C107 1.567 108.567 0 110.5 0ZM211 0C213.209 0 215 1.79086 215 4V46C215 48.2091 213.209 50 211 50C208.791 50 207 48.2091 207 46V27.0273L204.036 27.041C201.827 27.0509 200.028 25.2685 200.018 23.0596C200.008 20.8505 201.791 19.0509 204 19.041L207 19.0273V4C207 1.79086 208.791 0 211 0ZM158 31.9053C160.209 31.9053 162 33.6961 162 35.9053C162 38.0824 160.261 39.8515 158.096 39.9023C158.097 39.9483 158.099 39.9946 158.1 40.041L158.125 45.8516C158.135 48.0832 156.334 49.9002 154.103 49.9102C151.871 49.92 150.054 48.1193 150.044 45.8877L150.018 40.0771C150.017 40.0196 150.019 39.9622 150.021 39.9053H134.096C134.097 39.95 134.099 39.995 134.1 40.04L134.126 45.8506C134.136 48.0821 132.335 49.899 130.104 49.9092C127.872 49.9192 126.054 48.1184 126.044 45.8867L126.019 40.0762C126.018 40.019 126.019 39.9619 126.021 39.9053H121C118.791 39.9053 117 38.1144 117 35.9053C117 33.6961 118.791 31.9053 121 31.9053H158ZM26 0C28.209 0 29.9997 1.57221 30 3.51172V35.7998L30.0059 35.8008C30.0028 37.6064 29.6112 39.3937 28.8545 41.0605C28.0977 42.7275 26.99 44.2412 25.5947 45.5156C24.1995 46.7901 22.544 47.8004 20.7227 48.4883C18.9014 49.1762 16.9496 49.5287 14.9795 49.5254C13.0095 49.522 11.0591 49.1628 9.24023 48.4688C7.42154 47.7748 5.76968 46.7594 4.37891 45.4805C2.98796 44.2013 1.88491 42.6832 1.13379 41.0137C0.417383 39.4213 0.0351233 37.7205 0.00390625 36H0V3.51172C0.000293282 1.57221 1.79104 0 4 0C6.20896 0 7.99971 1.57221 8 3.51172V19.4668C8.31 19.3214 8.62593 19.1861 8.94727 19.0615C10.7042 18.3802 12.5883 18.0277 14.4912 18.0244C16.3943 18.0212 18.2797 18.3675 20.0391 19.043C20.7184 19.3038 21.3737 19.612 22 19.9639V3.51172C22.0003 1.57221 23.791 0 26 0ZM85 0C87.209 0 88.9997 1.57221 89 3.51172V35.7998L89.0059 35.8008C89.0028 37.6064 88.6112 39.3937 87.8545 41.0605C87.0977 42.7275 85.99 44.2412 84.5947 45.5156C83.1995 46.7901 81.544 47.8004 79.7227 48.4883C77.9014 49.1762 75.9496 49.5287 73.9795 49.5254C72.0095 49.522 70.0591 49.1628 68.2402 48.4688C66.4215 47.7748 64.7697 46.7594 63.3789 45.4805C61.988 44.2013 60.8849 42.6832 60.1338 41.0137C59.4174 39.4213 59.0351 37.7205 59.0039 36H59V3.51172C59.0003 1.57221 60.791 0 63 0C65.209 0 66.9997 1.57221 67 3.51172V19.4668C67.31 19.3214 67.6259 19.1861 67.9473 19.0615C69.7042 18.3802 71.5883 18.0277 73.4912 18.0244C75.3943 18.0212 77.2797 18.3675 79.0391 19.043C79.7184 19.3038 80.3737 19.612 81 19.9639V3.51172C81.0003 1.57221 82.791 0 85 0ZM182 5C191.389 5 199 13.0589 199 23C199 32.9411 191.389 41 182 41C172.611 41 165 32.9411 165 23C165 13.0589 172.611 5 182 5ZM14.9844 27.0107C14.0636 27.0123 13.152 27.1413 12.3018 27.3896C11.4514 27.6381 10.6787 28.0015 10.0283 28.459C9.37794 28.9165 8.86219 29.4597 8.51074 30.0566C8.23263 30.5291 8.06261 31.0285 8.00391 31.5361H8V36H7.99414C8.03169 36.598 8.20781 37.1875 8.51562 37.7422C8.86625 38.3738 9.38125 38.9485 10.0303 39.4326C10.6793 39.9167 11.4502 40.3016 12.2988 40.5645C13.1474 40.8272 14.0577 40.9633 14.9766 40.9648C15.8954 40.9663 16.8059 40.8332 17.6553 40.5732C18.5046 40.3133 19.2762 39.931 19.9268 39.4492C20.5774 38.9673 21.0945 38.3951 21.4473 37.7646C21.7979 37.138 21.9791 36.466 21.9824 35.7871H22V31.5117L21.9795 31.5127C21.9191 31.0054 21.7494 30.5066 21.4697 30.0352C21.1163 29.4393 20.5983 28.8978 19.9463 28.4424C19.2944 27.9872 18.5209 27.6264 17.6699 27.3809C16.8186 27.1352 15.9054 27.0092 14.9844 27.0107ZM73.9844 27.0107C73.0636 27.0123 72.152 27.1413 71.3018 27.3896C70.4514 27.6381 69.6787 28.0015 69.0283 28.459C68.3779 28.9165 67.8622 29.4597 67.5107 30.0566C67.2326 30.5291 67.0626 31.0285 67.0039 31.5361H67V36H66.9941C67.0317 36.598 67.2078 37.1875 67.5156 37.7422C67.8662 38.3738 68.3813 38.9485 69.0303 39.4326C69.6793 39.9167 70.4502 40.3016 71.2988 40.5645C72.1474 40.8272 73.0577 40.9633 73.9766 40.9648C74.8954 40.9663 75.8059 40.8332 76.6553 40.5732C77.5046 40.3133 78.2762 39.931 78.9268 39.4492C79.5774 38.9673 80.0945 38.3951 80.4473 37.7646C80.7979 37.138 80.9791 36.466 80.9824 35.7871H81V31.5117L80.9795 31.5127C80.9191 31.0054 80.7494 30.5066 80.4697 30.0352C80.1163 29.4393 79.5983 28.8978 78.9463 28.4424C78.2944 27.9872 77.5209 27.6264 76.6699 27.3809C75.8186 27.1352 74.9054 27.0092 73.9844 27.0107ZM182 14C177.029 14 173 18.0294 173 23C173 27.9706 177.029 32 182 32C186.971 32 191 27.9706 191 23C191 18.0294 186.971 14 182 14ZM144.777 0C148.815 0.0001627 152.687 1.98755 155.542 5.52246C157.538 7.99418 158.92 11.0822 159.572 14.4248C159.903 15.579 159.904 17.3699 159.904 18.5391V24.8965C159.904 27.1054 158.113 28.8962 155.904 28.8965C153.695 28.8963 151.904 27.1054 151.904 24.8965V17.7656C151.072 11.9602 148.619 7.89528 144.616 8.00293C141.207 8.00305 138.878 10.8431 137.663 15.1387C137.392 16.8977 136.578 20.7394 135.001 23.5C133.001 26.9996 131.389 27.2789 129.143 27.7754C126.896 28.2718 124.577 27.9388 122.489 26.8203C121.084 26.0671 119.825 24.9809 118.785 23.6357C117.892 22.4799 118.288 20.8615 119.455 19.9834L121.091 18.752C122.011 20.957 123.517 22.3953 125.219 22.3955C127.804 22.395 128.856 18.3318 129.992 14.1143C130.01 14.1136 130.028 14.113 130.046 14.1123C130.722 10.8898 132.079 7.91696 134.013 5.52246C136.868 1.98756 140.74 1.70793e-05 144.777 0ZM184 24.5C184 24.697 183.948 24.8922 183.848 25.0742C183.747 25.2561 183.6 25.4213 183.414 25.5605C183.228 25.6998 183.008 25.8104 182.766 25.8857C182.523 25.9611 182.263 26 182 26C181.737 26 181.477 25.9611 181.234 25.8857C180.992 25.8104 180.772 25.6998 180.586 25.5605C180.4 25.4213 180.253 25.2561 180.152 25.0742C180.052 24.8922 180 24.697 180 24.5H184ZM179 21C179.552 21 180 21.4477 180 22C180 22.5523 179.552 23 179 23C178.448 23 178 22.5523 178 22C178 21.4477 178.448 21 179 21ZM185 21C185.552 21 186 21.4477 186 22C186 22.5523 185.552 23 185 23C184.448 23 184 22.5523 184 22C184 21.4477 184.448 21 185 21Z" fill="#FF5D83"/>
</svg>
